<svg id="icon" height="512" viewBox="0 0 128 128" width="512" xmlns="http://www.w3.org/2000/svg"><path d="m108.92 28.5c.054-.663.089-1.332.089-2.01a24.512 24.512 0 0 0 -42.521-16.636 22.237 22.237 0 0 0 -30.359 6.778 18.187 18.187 0 0 0 -25.015 23.3 18.182 18.182 0 0 0 17.9 31.649 18.176 18.176 0 0 0 25.186 3.264 19.6 19.6 0 0 0 34.622-2 24.52 24.52 0 1 0 20.1-44.35z" fill="#f0f5f9"/><path d="m126.051 51.881a24.535 24.535 0 0 1 -37.23 20.97 19.592 19.592 0 0 1 -34.62 1.99 18.165 18.165 0 0 1 -25.18-3.26 18.19 18.19 0 0 1 -26.57-20.11 18.182 18.182 0 0 0 26.57 11.629 18.165 18.165 0 0 0 25.18 3.26 19.582 19.582 0 0 0 16.79 9.48c7.92 0 11.6-2.122 11.336-9.217 3.71 2.25 13.219 4.2 17.869 4.2 12.1 0 23.485-11.688 25.485-23.208a24.905 24.905 0 0 1 .37 4.266z" fill="#d9e2e9"/><path d="m70.987 85.329a20.436 20.436 0 0 1 -17.064-9.061 19.178 19.178 0 0 1 -25.154-3.421 19.181 19.181 0 0 1 -18.9-33.333 19.186 19.186 0 0 1 25.919-24.158 23.237 23.237 0 0 1 30.527-6.77 25.512 25.512 0 0 1 43.694 17.9c0 .416-.012.847-.038 1.305a25.521 25.521 0 1 1 -20.721 46.459 20.653 20.653 0 0 1 -18.263 11.079zm-16.787-11.484a1.011 1.011 0 0 1 .19.018 1 1 0 0 1 .666.465 18.6 18.6 0 0 0 32.856-1.895 1 1 0 0 1 1.429-.44 23.52 23.52 0 1 0 19.278-42.542 1 1 0 0 1 -.695-1.034c.057-.708.085-1.339.085-1.93a23.512 23.512 0 0 0 -40.787-15.954 1 1 0 0 1 -1.262.171 21.235 21.235 0 0 0 -28.993 6.474 1 1 0 0 1 -1.294.344 16.991 16.991 0 0 0 -7.82-1.884 17.19 17.19 0 0 0 -15.819 23.9 1 1 0 0 1 -.423 1.259 17.181 17.181 0 0 0 16.918 29.912 1 1 0 0 1 1.274.251 17.174 17.174 0 0 0 23.8 3.085 1 1 0 0 1 .597-.2z" fill="#2f3a5a"/><path d="m101.532 77.4a25.528 25.528 0 0 1 -22.412-13.313 1 1 0 0 1 1.756-.958 23.52 23.52 0 0 0 44.172-11.251 1 1 0 1 1 2 0 25.545 25.545 0 0 1 -25.516 25.522z" fill="#2f3a5a"/><path d="m32.528 29.76a1 1 0 0 1 -1-1 23.245 23.245 0 0 1 42.2-13.46 1 1 0 1 1 -1.63 1.159 21.245 21.245 0 0 0 -38.565 12.3 1 1 0 0 1 -1.005 1.001z" fill="#2f3a5a"/><path d="m15.309 46.984a1 1 0 0 1 -.69-.276 19.011 19.011 0 0 1 -5.95-13.887 19.2 19.2 0 0 1 19.184-19.183 1 1 0 0 1 0 2 17.2 17.2 0 0 0 -17.184 17.183 17.03 17.03 0 0 0 5.331 12.439 1 1 0 0 1 -.69 1.724z" fill="#2f3a5a"/><path d="m25.372 77.257h69.696v11.231h-69.696z" fill="#dbe2eb"/><path d="m95.067 89.489h-69.695a1 1 0 0 1 -1-1v-11.232a1 1 0 0 1 1-1h69.695a1 1 0 0 1 1 1v11.232a1 1 0 0 1 -1 1zm-68.695-2h67.695v-9.232h-67.695z" fill="#2f3a5a"/><rect fill="#9297ab" height="26.258" rx="2.633" width="80.047" x="20.196" y="54.472"/><path d="m100.24 57.1v21a2.633 2.633 0 0 1 -2.63 2.63h-74.78a2.633 2.633 0 0 1 -2.63-2.63v-.33h75.21a1.327 1.327 0 0 0 1.33-1.32v-21.98h.87a2.633 2.633 0 0 1 2.63 2.63z" fill="#84879c"/><path d="m97.609 81.729h-74.779a3.637 3.637 0 0 1 -3.63-3.629v-20.995a3.638 3.638 0 0 1 3.634-3.633h74.775a3.638 3.638 0 0 1 3.634 3.633v20.995a3.637 3.637 0 0 1 -3.634 3.629zm-74.779-26.257a1.636 1.636 0 0 0 -1.63 1.633v20.995a1.635 1.635 0 0 0 1.634 1.633h74.775a1.635 1.635 0 0 0 1.634-1.633v-20.995a1.636 1.636 0 0 0 -1.634-1.633z" fill="#2f3a5a"/><rect fill="#9297ab" height="26.258" rx="2.633" width="80.047" x="20.196" y="83.985"/><path d="m100.24 86.62v20.99a2.633 2.633 0 0 1 -2.63 2.63h-74.78a2.633 2.633 0 0 1 -2.63-2.63v-.62h74.09a2.637 2.637 0 0 0 2.64-2.64v-20.37h.68a2.635 2.635 0 0 1 2.63 2.64z" fill="#84879c"/><path d="m97.609 111.243h-74.779a3.638 3.638 0 0 1 -3.634-3.634v-20.99a3.638 3.638 0 0 1 3.634-3.634h74.779a3.638 3.638 0 0 1 3.634 3.634v20.99a3.638 3.638 0 0 1 -3.634 3.634zm-74.779-26.258a1.636 1.636 0 0 0 -1.63 1.634v20.99a1.636 1.636 0 0 0 1.634 1.634h74.775a1.636 1.636 0 0 0 1.634-1.634v-20.99a1.636 1.636 0 0 0 -1.634-1.634z" fill="#2f3a5a"/><circle cx="87.808" cy="67.601" fill="#9bc6f1" r="4.542" transform="matrix(.973 -.23 .23 .973 -13.183 21.983)"/><path d="m87.808 73.143a5.542 5.542 0 1 1 5.543-5.543 5.548 5.548 0 0 1 -5.543 5.543zm0-9.084a3.542 3.542 0 1 0 3.543 3.541 3.545 3.545 0 0 0 -3.543-3.541z" fill="#2f3a5a"/><circle cx="71.248" cy="67.601" fill="#9bc6f1" r="4.542" transform="matrix(.973 -.23 .23 .973 -13.626 18.178)"/><g fill="#2f3a5a"><path d="m71.248 73.143a5.542 5.542 0 1 1 5.543-5.543 5.548 5.548 0 0 1 -5.543 5.543zm0-9.084a3.542 3.542 0 1 0 3.543 3.541 3.545 3.545 0 0 0 -3.543-3.541z"/><path d="m31.388 90.957h-2.009a1 1 0 0 1 0-2h2.009a1 1 0 0 1 0 2z"/><path d="m31.388 95.778h-2.009a1 1 0 0 1 0-2h2.009a1 1 0 0 1 0 2z"/><path d="m31.388 100.6h-2.009a1 1 0 1 1 0-2h2.009a1 1 0 0 1 0 2z"/><path d="m31.388 105.422h-2.009a1 1 0 1 1 0-2h2.009a1 1 0 0 1 0 2z"/><path d="m38.019 90.957h-2.01a1 1 0 0 1 0-2h2.01a1 1 0 1 1 0 2z"/><path d="m38.019 95.778h-2.01a1 1 0 0 1 0-2h2.01a1 1 0 0 1 0 2z"/><path d="m38.019 100.6h-2.01a1 1 0 0 1 0-2h2.01a1 1 0 1 1 0 2z"/><path d="m38.019 105.422h-2.01a1 1 0 1 1 0-2h2.01a1 1 0 1 1 0 2z"/><path d="m44.649 90.957h-2.009a1 1 0 1 1 0-2h2.009a1 1 0 0 1 0 2z"/><path d="m44.649 95.778h-2.009a1 1 0 0 1 0-2h2.009a1 1 0 1 1 0 2z"/><path d="m44.649 100.6h-2.009a1 1 0 1 1 0-2h2.009a1 1 0 0 1 0 2z"/><path d="m44.649 105.422h-2.009a1 1 0 0 1 0-2h2.009a1 1 0 0 1 0 2z"/><path d="m51.279 90.957h-2.009a1 1 0 0 1 0-2h2.009a1 1 0 0 1 0 2z"/><path d="m51.279 95.778h-2.009a1 1 0 1 1 0-2h2.009a1 1 0 1 1 0 2z"/><path d="m51.279 100.6h-2.009a1 1 0 0 1 0-2h2.009a1 1 0 0 1 0 2z"/><path d="m51.279 105.422h-2.009a1 1 0 0 1 0-2h2.009a1 1 0 0 1 0 2z"/><path d="m57.909 90.957h-2.009a1 1 0 0 1 0-2h2.009a1 1 0 0 1 0 2z"/><path d="m57.909 95.778h-2.009a1 1 0 1 1 0-2h2.009a1 1 0 1 1 0 2z"/><path d="m57.909 100.6h-2.009a1 1 0 0 1 0-2h2.009a1 1 0 0 1 0 2z"/><path d="m57.909 105.422h-2.009a1 1 0 0 1 0-2h2.009a1 1 0 0 1 0 2z"/><path d="m64.539 90.957h-2.009a1 1 0 0 1 0-2h2.009a1 1 0 0 1 0 2z"/><path d="m64.539 95.778h-2.009a1 1 0 1 1 0-2h2.009a1 1 0 0 1 0 2z"/><path d="m64.539 100.6h-2.009a1 1 0 0 1 0-2h2.009a1 1 0 0 1 0 2z"/><path d="m64.539 105.422h-2.009a1 1 0 0 1 0-2h2.009a1 1 0 1 1 0 2z"/><path d="m71.169 90.957h-2.009a1 1 0 0 1 0-2h2.009a1 1 0 0 1 0 2z"/><path d="m71.169 95.778h-2.009a1 1 0 0 1 0-2h2.009a1 1 0 0 1 0 2z"/><path d="m71.169 100.6h-2.009a1 1 0 0 1 0-2h2.009a1 1 0 0 1 0 2z"/><path d="m71.169 105.422h-2.009a1 1 0 0 1 0-2h2.009a1 1 0 1 1 0 2z"/><path d="m77.8 90.957h-2.009a1 1 0 0 1 0-2h2.009a1 1 0 0 1 0 2z"/><path d="m77.8 95.778h-2.009a1 1 0 0 1 0-2h2.009a1 1 0 0 1 0 2z"/><path d="m77.8 100.6h-2.009a1 1 0 0 1 0-2h2.009a1 1 0 0 1 0 2z"/><path d="m77.8 105.422h-2.009a1 1 0 0 1 0-2h2.009a1 1 0 0 1 0 2z"/><path d="m84.43 90.957h-2.01a1 1 0 0 1 0-2h2.01a1 1 0 0 1 0 2z"/><path d="m84.43 95.778h-2.01a1 1 0 0 1 0-2h2.01a1 1 0 0 1 0 2z"/><path d="m84.43 100.6h-2.01a1 1 0 0 1 0-2h2.01a1 1 0 0 1 0 2z"/><path d="m84.43 105.422h-2.01a1 1 0 1 1 0-2h2.01a1 1 0 0 1 0 2z"/><path d="m91.06 90.957h-2.009a1 1 0 1 1 0-2h2.009a1 1 0 0 1 0 2z"/><path d="m91.06 95.778h-2.009a1 1 0 0 1 0-2h2.009a1 1 0 0 1 0 2z"/><path d="m91.06 100.6h-2.009a1 1 0 1 1 0-2h2.009a1 1 0 0 1 0 2z"/><path d="m91.06 105.422h-2.009a1 1 0 0 1 0-2h2.009a1 1 0 0 1 0 2z"/></g><path d="m28.565 61.528h11.345v3.667h-11.345z" fill="#bac2d3"/><path d="m39.91 66.195h-11.345a1 1 0 0 1 -1-1v-3.667a1 1 0 0 1 1-1h11.345a1 1 0 0 1 1 1v3.667a1 1 0 0 1 -1 1zm-10.345-2h9.345v-1.667h-9.345z" fill="#2f3a5a"/><path d="m28.565 70.006h11.345v3.667h-11.345z" fill="#bac2d3"/><path d="m39.91 74.673h-11.345a1 1 0 0 1 -1-1v-3.667a1 1 0 0 1 1-1h11.345a1 1 0 0 1 1 1v3.667a1 1 0 0 1 -1 1zm-10.345-2h9.345v-1.667h-9.345z" fill="#2f3a5a"/></svg>