<svg id="Layer_1" enable-background="new 0 0 512 512" height="512" viewBox="0 0 512 512" width="512" xmlns="http://www.w3.org/2000/svg"><g><g fill="#43809f"><path d="m212.407 303.1h-111.181c-18.873 0-34.226 15.379-34.226 34.285v76.233c0 18.904 15.353 34.284 34.226 34.284h23.519c4.135 0 7.487-3.357 7.487-7.5s-3.352-7.5-7.487-7.5h-23.519c-10.615 0-19.252-8.65-19.252-19.284v-76.233c0-10.634 8.636-19.285 19.252-19.285h111.181c4.135 0 7.487-3.357 7.487-7.5s-3.352-7.5-7.487-7.5z"/><path d="m410.774 303.1h-105.876c-4.135 0-7.487 3.357-7.487 7.5s3.352 7.5 7.487 7.5h105.876c10.615 0 19.252 8.651 19.252 19.285v76.233c0 10.634-8.636 19.284-19.252 19.284h-20.866c-4.135 0-7.487 3.357-7.487 7.5s3.352 7.5 7.487 7.5h20.866c18.873 0 34.226-15.38 34.226-34.284v-76.233c0-18.906-15.353-34.285-34.226-34.285z"/></g><path d="m376.529 160.165c-.217 37.43-17.493 70.813-44.444 92.772-12.398 10.101-19.425 25.374-19.425 41.366v7.829h-113.32v-7.825c0-16.256-7.468-31.5-20.006-41.846-26.788-22.104-43.865-55.56-43.865-93.009 0-66.57 53.96-120.53 120.529-120.531 66.553-.002 120.917 54.692 120.531 121.244z" fill="#ffc328"/><path d="m255.998 38.921c-5.251 0-10.422.338-15.495.989 59.332 7.661 105.476 58.922 105.121 120.255-.217 37.43-17.493 70.813-44.444 92.773-12.398 10.101-19.425 25.374-19.425 41.366v7.828h30.905v-7.828c0-15.992 7.027-31.265 19.425-41.366 26.951-21.959 44.227-55.343 44.444-92.773.386-66.552-53.978-121.245-120.531-121.244z" fill="#ffb200"/><path d="m398.97 402.77h-285.629l17.729-53.281c2.102-6.294 8.159-10.559 14.989-10.559h220.459c6.83 0 12.888 4.265 14.989 10.559z" fill="#29cef6"/><path d="m381.219 349.489c-2.102-6.294-8.159-10.559-14.989-10.559h-30.905c6.83 0 12.888 4.265 14.989 10.559l17.462 53.281h30.905z" fill="#22b5ed"/><path d="m377.561 512h-243.122c-12.517 0-22.664-10.147-22.664-22.664v-78.294c0-12.517 10.147-22.664 22.664-22.664h243.123c12.517 0 22.664 10.147 22.664 22.664v78.294c-.001 12.517-10.148 22.664-22.665 22.664z" fill="#a9dbf5"/><path d="m377.561 388.378h-30.905c12.517 0 22.664 10.147 22.664 22.664v78.294c0 12.517-10.147 22.664-22.664 22.664h30.905c12.517 0 22.664-10.147 22.664-22.664v-78.294c0-12.517-10.147-22.664-22.664-22.664z" fill="#88c3e0"/><path d="m142.68 476.974v-53.569c0-2.276 1.845-4.121 4.121-4.121h218.398c2.276 0 4.121 1.845 4.121 4.121v53.569c0 2.276-1.845 4.121-4.121 4.121h-218.398c-2.276 0-4.121-1.845-4.121-4.121z" fill="#43809f"/><g fill="#f78e36"><path d="m190.061 452.25c-8.534 0-15.453-6.918-15.453-15.453v-17.513h30.905v17.513c.001 8.534-6.917 15.453-15.452 15.453z"/><path d="m241.577 452.25c-8.534 0-15.453-6.918-15.453-15.453v-17.513h30.905v17.513c.001 8.534-6.917 15.453-15.452 15.453z"/><path d="m259.445 112.257 13.296 26.936c.952 1.928 2.792 3.265 4.92 3.574l29.732 4.319c5.36.779 7.5 7.364 3.622 11.144l-21.514 20.967c-1.54 1.501-2.243 3.663-1.879 5.783l5.079 29.605c.916 5.337-4.688 9.407-9.482 6.887l-26.593-13.978c-1.904-1.001-4.178-1.001-6.082 0l-26.593 13.978c-4.794 2.52-10.397-1.55-9.482-6.887l5.079-29.605c.364-2.119-.339-4.282-1.879-5.783l-21.514-20.967c-3.878-3.78-1.738-10.365 3.622-11.144l29.732-4.319c2.128-.309 3.968-1.646 4.92-3.574l13.296-26.936c2.397-4.856 9.323-4.856 11.72 0z"/></g><g fill="#ffb200"><path d="m256 0c-4.143 0-7.5 3.357-7.5 7.5v10.302c0 4.143 3.357 7.5 7.5 7.5s7.5-3.357 7.5-7.5v-10.302c0-4.143-3.357-7.5-7.5-7.5z"/><path d="m210.42 14.125c-1.436-3.885-5.751-5.871-9.636-4.435s-5.87 5.75-4.435 9.636l3.578 9.681c1.119 3.027 3.986 4.901 7.036 4.901.863 0 1.742-.15 2.6-.467 3.885-1.437 5.87-5.75 4.435-9.636z"/><path d="m162.372 38.427c-2.688-3.153-7.422-3.529-10.573-.845-3.153 2.687-3.531 7.421-.845 10.573l6.725 7.892c1.484 1.741 3.592 2.636 5.713 2.636 1.72 0 3.449-.589 4.86-1.791 3.153-2.687 3.531-7.421.845-10.573z"/><path d="m354.68 264.128c-2.687-3.153-7.42-3.532-10.573-.845-3.152 2.687-3.531 7.42-.845 10.573l6.724 7.892c1.483 1.741 3.592 2.636 5.713 2.636 1.72 0 3.448-.588 4.86-1.791 3.152-2.687 3.531-7.42.845-10.573z"/><path d="m134.751 82.622-9.059-5.15c-3.601-2.05-8.18-.79-10.227 2.813-2.048 3.601-.788 8.18 2.813 10.227l9.059 5.15c1.17.666 2.443.981 3.7.981 2.609 0 5.145-1.363 6.526-3.794 2.048-3.601.789-8.18-2.812-10.227z"/><path d="m393.847 229.938-9.06-5.151c-3.601-2.05-8.18-.789-10.227 2.813-2.048 3.601-.788 8.18 2.813 10.227l9.06 5.151c1.17.666 2.443.981 3.7.981 2.609 0 5.145-1.363 6.526-3.794 2.048-3.601.788-8.18-2.812-10.227z"/><path d="m102.25 141.307 10.302 1.789c.434.075.866.111 1.292.111 3.579 0 6.747-2.571 7.381-6.218.708-4.081-2.025-7.964-6.106-8.673l-10.302-1.789c-4.079-.707-7.964 2.025-8.673 6.106-.708 4.082 2.025 7.965 6.106 8.674z"/><path d="m409.75 179.479-10.302-1.789c-4.081-.706-7.964 2.025-8.673 6.106-.708 4.081 2.025 7.964 6.106 8.673l10.302 1.789c.434.075.866.111 1.292.111 3.579 0 6.747-2.571 7.381-6.218.708-4.081-2.025-7.963-6.106-8.672z"/><path d="m121.225 183.975c-.709-4.081-4.594-6.81-8.673-6.106l-10.302 1.789c-4.081.709-6.814 4.592-6.106 8.673.634 3.647 3.802 6.218 7.381 6.218.426 0 .858-.036 1.292-.111l10.302-1.789c4.08-.711 6.814-4.593 6.106-8.674z"/><path d="m390.775 137.168c.634 3.647 3.802 6.218 7.381 6.218.426 0 .858-.036 1.292-.111l10.302-1.789c4.081-.709 6.814-4.592 6.106-8.673-.709-4.081-4.591-6.811-8.673-6.106l-10.302 1.789c-4.08.708-6.814 4.591-6.106 8.672z"/><path d="m127.337 225.303-9.059 5.15c-3.601 2.047-4.86 6.626-2.813 10.227 1.382 2.431 3.917 3.794 6.526 3.794 1.256 0 2.53-.315 3.7-.981l9.059-5.15c3.601-2.047 4.86-6.626 2.813-10.227-2.046-3.6-6.624-4.862-10.226-2.813z"/><path d="m381.087 97.158c1.256 0 2.53-.316 3.7-.981l9.06-5.151c3.601-2.047 4.86-6.626 2.813-10.227-2.046-3.601-6.625-4.857-10.227-2.813l-9.06 5.151c-3.601 2.047-4.86 6.626-2.813 10.227 1.382 2.431 3.918 3.794 6.527 3.794z"/><path d="m168.252 264.072c-3.154-2.688-7.886-2.309-10.573.845l-6.725 7.892c-2.687 3.152-2.309 7.887.845 10.573 1.412 1.203 3.141 1.791 4.86 1.791 2.121 0 4.229-.895 5.713-2.636l6.725-7.892c2.686-3.152 2.308-7.886-.845-10.573z"/><path d="m360.559 38.371c-3.153-2.688-7.887-2.309-10.573.845l-6.724 7.892c-2.687 3.153-2.308 7.887.845 10.573 1.412 1.203 3.141 1.791 4.86 1.791 2.121 0 4.229-.895 5.713-2.636l6.724-7.892c2.686-3.153 2.307-7.886-.845-10.573z"/><path d="m311.887 10.659c-3.888-1.435-8.199.55-9.635 4.436l-3.577 9.68c-1.436 3.885.55 8.199 4.436 9.635.857.316 1.735.467 2.599.467 3.05 0 5.917-1.874 7.036-4.902l3.577-9.68c1.435-3.886-.551-8.2-4.436-9.636z"/></g><path d="m275.97 348.228h-39.94c-20.356 0-36.858-16.502-36.858-36.858v-16.738h113.655v16.738c.001 20.356-16.501 36.858-36.857 36.858z" fill="#43809f"/><path d="m281.922 294.632v16.738c0 20.356-16.502 36.858-36.858 36.858h30.905c20.356 0 36.858-16.501 36.858-36.858v-16.738z" fill="#3a7190"/></g></svg>