<svg id="Layer_1" enable-background="new 0 0 512 512" height="512" viewBox="0 0 512 512" width="512" xmlns="http://www.w3.org/2000/svg"><g><path d="m231.556 212.701h-229.998l17.729-53.281c2.102-6.294 8.159-10.559 14.989-10.559h164.829c6.83 0 12.888 4.265 14.989 10.559z" fill="#29cef6"/><path d="m213.814 159.421c-2.102-6.294-8.159-10.559-14.989-10.559h-30.905c6.83 0 12.888 4.265 14.989 10.559l17.462 53.281h30.905z" fill="#22b5ed"/><path d="m210.157 321.932h-187.493c-12.517 0-22.664-10.147-22.664-22.664v-78.294c0-12.517 10.147-22.664 22.664-22.664h187.493c12.517 0 22.664 10.147 22.664 22.664v78.294c0 12.517-10.147 22.664-22.664 22.664z" fill="#a9dbf5"/><path d="m30.905 286.905v-53.569c0-2.276 1.845-4.121 4.121-4.121h162.769c2.276 0 4.121 1.845 4.121 4.121v53.569c0 2.276-1.845 4.121-4.121 4.121h-162.769c-2.276 0-4.121-1.845-4.121-4.121z" fill="#43809f"/><path d="m78.287 262.181c-8.534 0-15.453-6.918-15.453-15.453v-17.513h30.905v17.513c0 8.535-6.918 15.453-15.452 15.453z" fill="#f78e36"/><path d="m129.803 262.181c-8.534 0-15.453-6.918-15.453-15.453v-17.513h30.905v17.513c.001 8.535-6.918 15.453-15.452 15.453z" fill="#f78e36"/><path d="m510.735 212.701h-229.998l17.729-53.281c2.102-6.294 8.159-10.559 14.989-10.559h164.829c6.83 0 12.888 4.265 14.989 10.559z" fill="#29cef6"/><path d="m492.993 159.421c-2.102-6.294-8.159-10.559-14.989-10.559h-30.905c6.83 0 12.888 4.265 14.989 10.559l17.462 53.281h30.905z" fill="#22b5ed"/><path d="m489.336 321.932h-187.493c-12.517 0-22.664-10.147-22.664-22.664v-78.294c0-12.517 10.147-22.664 22.664-22.664h187.493c12.517 0 22.664 10.147 22.664 22.664v78.294c0 12.517-10.147 22.664-22.664 22.664z" fill="#a9dbf5"/><path d="m489.336 198.31h-30.905c12.517 0 22.664 10.147 22.664 22.664v78.294c0 12.517-10.147 22.664-22.664 22.664h30.905c12.517 0 22.664-10.147 22.664-22.664v-78.294c0-12.517-10.147-22.664-22.664-22.664z" fill="#88c3e0"/><path d="m310.085 286.905v-53.569c0-2.276 1.845-4.121 4.121-4.121h162.769c2.276 0 4.121 1.845 4.121 4.121v53.569c0 2.276-1.845 4.121-4.121 4.121h-162.77c-2.276 0-4.12-1.845-4.12-4.121z" fill="#43809f"/><path d="m357.466 262.181c-8.534 0-15.453-6.918-15.453-15.453v-17.513h30.905v17.513c.001 8.535-6.918 15.453-15.452 15.453z" fill="#f78e36"/><path d="m408.982 262.181c-8.534 0-15.453-6.918-15.453-15.453v-17.513h30.905v17.513c.001 8.535-6.918 15.453-15.452 15.453z" fill="#f78e36"/><path d="m371.146 402.77h-229.998l17.729-53.281c2.102-6.294 8.159-10.559 14.989-10.559h164.829c6.83 0 12.888 4.265 14.989 10.559z" fill="#29cef6"/><path d="m353.404 349.489c-2.102-6.294-8.159-10.559-14.989-10.559h-30.905c6.83 0 12.888 4.265 14.989 10.559l17.462 53.281h30.905z" fill="#22b5ed"/><path d="m349.746 512h-187.492c-12.517 0-22.664-10.147-22.664-22.664v-78.294c0-12.517 10.147-22.664 22.664-22.664h187.493c12.517 0 22.664 10.147 22.664 22.664v78.294c-.001 12.517-10.148 22.664-22.665 22.664z" fill="#a9dbf5"/><path d="m349.746 388.378h-30.905c12.517 0 22.664 10.147 22.664 22.664v78.294c0 12.517-10.147 22.664-22.664 22.664h30.905c12.517 0 22.664-10.147 22.664-22.664v-78.294c0-12.517-10.147-22.664-22.664-22.664z" fill="#88c3e0"/><path d="m170.495 476.974v-53.569c0-2.276 1.845-4.121 4.121-4.121h162.769c2.276 0 4.121 1.845 4.121 4.121v53.569c0 2.276-1.845 4.121-4.121 4.121h-162.769c-2.276 0-4.121-1.845-4.121-4.121z" fill="#43809f"/><path d="m217.876 452.25c-8.534 0-15.453-6.918-15.453-15.453v-17.513h30.905v17.513c.001 8.534-6.917 15.453-15.452 15.453z" fill="#f78e36"/><path d="m269.392 452.25c-8.534 0-15.453-6.918-15.453-15.453v-17.513h30.905v17.513c.001 8.534-6.917 15.453-15.452 15.453z" fill="#f78e36"/><path d="m314.472 356.958h-116.944c-13.792 0-24.973-11.181-24.973-24.973v-116.944c0-13.792 11.181-24.973 24.973-24.973h116.944c13.792 0 24.973 11.181 24.973 24.973v116.944c0 13.792-11.181 24.973-24.973 24.973z" fill="#7be492"/><path d="m314.472 190.068h-30.905c13.792 0 24.973 11.181 24.973 24.973v116.944c0 13.792-11.181 24.973-24.973 24.973h30.905c13.792 0 24.973-11.181 24.973-24.973v-116.944c0-13.792-11.181-24.973-24.973-24.973z" fill="#45d987"/><path d="m203.461 323.992v-100.958c0-1.138.922-2.06 2.06-2.06h100.958c1.138 0 2.06.922 2.06 2.06v100.958c0 1.138-.922 2.06-2.06 2.06h-100.958c-1.138 0-2.06-.922-2.06-2.06z" fill="#f78e36"/><path d="m235.911 293.582v-40.138c0-3.663 3.961-5.887 6.995-3.927l31.064 20.069c2.825 1.825 2.825 6.029 0 7.854l-31.064 20.069c-3.034 1.96-6.995-.264-6.995-3.927z" fill="#f3f3f3"/><path d="m454.577 166.889h-116.944c-13.792 0-24.973-11.181-24.973-24.973v-116.943c0-13.792 11.181-24.973 24.973-24.973h116.944c13.792 0 24.973 11.181 24.973 24.973v116.944c-.001 13.792-11.181 24.972-24.973 24.972z" fill="#7be492"/><path d="m454.577 0h-30.905c13.792 0 24.973 11.181 24.973 24.973v116.944c0 13.792-11.181 24.973-24.973 24.973h30.905c13.792 0 24.973-11.181 24.973-24.973v-116.944c-.001-13.792-11.181-24.973-24.973-24.973z" fill="#45d987"/><path d="m343.565 133.924v-100.958c0-1.138.922-2.06 2.06-2.06h100.958c1.138 0 2.06.922 2.06 2.06v100.958c0 1.138-.922 2.06-2.06 2.06h-100.957c-1.138 0-2.061-.923-2.061-2.06z" fill="#f78e36"/><path d="m418.201 51.001h-40.249c-4.142 0-7.5 3.358-7.5 7.5v38.805h-.837c-4.142 0-7.5 3.358-7.5 7.5s3.358 7.5 7.5 7.5h8.337c4.142 0 7.5-3.358 7.5-7.5v-38.805h25.249v31.305h-2.275c-4.142 0-7.5 3.358-7.5 7.5s3.358 7.5 7.5 7.5h9.775c4.142 0 7.5-3.358 7.5-7.5v-46.305c0-4.142-3.358-7.5-7.5-7.5z" fill="#f3f3f3"/><path d="m175.397 166.889h-116.943c-13.792 0-24.973-11.181-24.973-24.973v-116.943c0-13.792 11.181-24.973 24.973-24.973h116.944c13.792 0 24.973 11.181 24.973 24.973v116.944c-.001 13.792-11.181 24.972-24.974 24.972z" fill="#7be492"/><path d="m175.397 0h-30.905c13.792 0 24.973 11.181 24.973 24.973v116.944c0 13.792-11.181 24.973-24.973 24.973h30.905c13.792 0 24.973-11.181 24.973-24.973v-116.944c0-13.792-11.18-24.973-24.973-24.973z" fill="#45d987"/><path d="m64.386 133.924v-100.958c0-1.138.922-2.06 2.06-2.06h100.958c1.138 0 2.06.922 2.06 2.06v100.958c0 1.138-.922 2.06-2.06 2.06h-100.957c-1.138 0-2.061-.923-2.061-2.06z" fill="#f78e36"/><path d="m167.404 135.984h-100.957c-1.138 0-2.06-.922-2.06-2.06v-33.556h105.078v33.556c0 1.137-.923 2.06-2.061 2.06z" fill="#29cef6"/><path d="m116.926 100.367h52.539l-24.656-31.048c-.825-1.039-2.402-1.039-3.227 0z" fill="#e4e4e4"/><path d="m64.386 100.367h64.862l-30.817-38.807c-.825-1.039-2.402-1.039-3.227 0z" fill="#f3f3f3"/></g></svg>