<svg id="Layer_1" enable-background="new 0 0 512 512" height="512" viewBox="0 0 512 512" width="512" xmlns="http://www.w3.org/2000/svg"><g><path d="m377.144 298.992h-242.288c-12.748 0-23.082-10.334-23.082-23.082v-82.058c0-12.748 10.334-23.082 23.082-23.082h242.287c12.748 0 23.082 10.334 23.082 23.082v82.058c0 12.748-10.334 23.082-23.081 23.082z" fill="#88c3e0"/><path d="m377.561 170.771h-30.905c12.517 0 22.664 10.525 22.664 23.507v81.207c0 12.983-10.147 23.507-22.664 23.507h30.905c12.517 0 22.664-10.525 22.664-23.507v-81.207c0-12.983-10.147-23.507-22.664-23.507z" fill="#6eabc9"/><path d="m240.547 410.604h30.905v49.294h-30.905z" fill="#43809f"/><path d="m508 512h-504c-2.209 0-4-1.791-4-4v-22.905c0-2.209 1.791-4 4-4h504c2.209 0 4 1.791 4 4v22.905c0 2.209-1.791 4-4 4z" fill="#43809f"/><path d="m398.969 63.84h-285.628l17.729-53.281c2.102-6.294 8.16-10.559 14.99-10.559h220.459c6.83 0 12.888 4.265 14.989 10.559z" fill="#29cef6"/><path d="m381.219 10.559c-2.102-6.294-8.16-10.559-14.99-10.559h-30.905c6.83 0 12.888 4.265 14.989 10.559l17.462 53.281h30.905z" fill="#22b5ed"/><path d="m377.561 173.07h-243.122c-12.517 0-22.664-10.147-22.664-22.664v-78.293c0-12.517 10.147-22.664 22.664-22.664h243.123c12.517 0 22.664 10.147 22.664 22.664v78.294c-.001 12.516-10.148 22.663-22.665 22.663z" fill="#a9dbf5"/><path d="m377.561 49.449h-30.905c12.517 0 22.664 10.147 22.664 22.664v78.294c0 12.517-10.147 22.664-22.664 22.664h30.905c12.517 0 22.664-10.147 22.664-22.664v-78.294c0-12.517-10.147-22.664-22.664-22.664z" fill="#88c3e0"/><path d="m142.68 138.044v-53.569c0-2.276 1.845-4.121 4.121-4.121h218.398c2.276 0 4.121 1.845 4.121 4.121v53.569c0 2.276-1.845 4.121-4.121 4.121h-218.398c-2.276 0-4.121-1.845-4.121-4.121z" fill="#43809f"/><path d="m190.061 113.32c-8.534 0-15.453-6.918-15.453-15.453v-17.513h30.905v17.513c.001 8.535-6.917 15.453-15.452 15.453z" fill="#f78e36"/><path d="m241.577 113.32c-8.534 0-15.453-6.918-15.453-15.453v-17.513h30.905v17.513c.001 8.535-6.917 15.453-15.452 15.453z" fill="#f78e36"/><path d="m142.68 261.666v-53.569c0-2.276 1.845-4.121 4.121-4.121h218.398c2.276 0 4.121 1.845 4.121 4.121v53.569c0 2.276-1.845 4.121-4.121 4.121h-218.398c-2.276 0-4.121-1.845-4.121-4.121z" fill="#43809f"/><path d="m190.061 236.942c-8.534 0-15.453-6.918-15.453-15.453v-17.513h30.905v17.513c.001 8.534-6.917 15.453-15.452 15.453z" fill="#f78e36"/><path d="m241.577 236.942c-8.534 0-15.453-6.918-15.453-15.453v-17.513h30.905v17.513c.001 8.534-6.917 15.453-15.452 15.453z" fill="#f78e36"/><path d="m377.561 420.314h-243.122c-12.517 0-22.664-10.147-22.664-22.664v-78.294c0-12.517 10.147-22.664 22.664-22.664h243.123c12.517 0 22.664 10.147 22.664 22.664v78.294c-.001 12.517-10.148 22.664-22.665 22.664z" fill="#a9dbf5"/><path d="m377.561 296.692h-30.905c12.517 0 22.664 10.147 22.664 22.664v78.294c0 12.517-10.147 22.664-22.664 22.664h30.905c12.517 0 22.664-10.147 22.664-22.664v-78.294c0-12.517-10.147-22.664-22.664-22.664z" fill="#88c3e0"/><path d="m142.68 385.288v-53.569c0-2.276 1.845-4.121 4.121-4.121h218.398c2.276 0 4.121 1.845 4.121 4.121v53.569c0 2.276-1.845 4.121-4.121 4.121h-218.398c-2.276-.001-4.121-1.845-4.121-4.121z" fill="#43809f"/><g fill="#f78e36"><path d="m190.061 360.563c-8.534 0-15.453-6.918-15.453-15.453v-17.513h30.905v17.513c.001 8.535-6.917 15.453-15.452 15.453z"/><path d="m241.577 360.563c-8.534 0-15.453-6.918-15.453-15.453v-17.513h30.905v17.513c.001 8.535-6.917 15.453-15.452 15.453z"/><path d="m302.358 481.095v30.905h-92.716v-30.905h30.905v-30.906h30.906v30.906z"/></g></g></svg>