<svg id="Layer_1" enable-background="new 0 0 512 512" height="512" viewBox="0 0 512 512" width="512" xmlns="http://www.w3.org/2000/svg"><g><circle cx="326.5" cy="256" fill="#f3f3f3" r="185.5"/><path d="m326.5 70.5c-5.207 0-10.36.225-15.458.646 95.214 7.857 170.041 87.612 170.041 184.854s-74.827 176.997-170.042 184.854c5.098.421 10.252.646 15.458.646 102.45 0 185.501-83.051 185.501-185.5s-83.051-185.5-185.5-185.5z" fill="#e4e4e4"/><path d="m484.742 159.169-158.242 96.831v-185.5c66.955 0 125.635 35.482 158.242 88.669z" fill="#f78e36"/><path d="m326.5 73.09c59.36 9.961 109.155 48.103 135.156 100.206l23.086-14.126c-32.607-53.188-91.287-88.67-158.242-88.67z" fill="#f86f1b"/><path d="m512 256c0 7.585-.453 15.056-1.34 22.404l-184.16-22.404 158.242-96.831c17.293 28.186 27.258 61.349 27.258 96.831z" fill="#29cef6"/><path d="m461.656 173.295c12.426 24.901 19.427 52.983 19.427 82.705 0 6.31-.322 12.544-.937 18.692l30.514 3.712c.886-7.348 1.34-14.819 1.34-22.404 0-35.482-9.965-68.645-27.258-96.831z" fill="#22b5ed"/><path d="m510.66 278.404c-2.113 17.519-6.657 34.276-13.304 49.941l-170.856-72.345z" fill="#ffd54f"/><path d="m470.783 317.093 26.573 11.252c6.647-15.664 11.192-32.421 13.304-49.941l-30.514-3.712c-1.472 14.708-4.659 28.91-9.363 42.401z" fill="#ffc328"/><path d="m287.195 301.297h-285.628l17.729-53.281c2.102-6.294 8.159-10.559 14.989-10.559h220.459c6.83 0 12.888 4.265 14.989 10.559z" fill="#29cef6"/><path d="m269.444 248.016c-2.102-6.294-8.159-10.559-14.989-10.559h-30.905c6.83 0 12.888 4.265 14.989 10.559l17.461 53.281h30.905z" fill="#22b5ed"/><path d="m265.787 410.527h-243.123c-12.517 0-22.664-10.147-22.664-22.664v-78.294c0-12.517 10.147-22.664 22.664-22.664h243.123c12.517 0 22.664 10.147 22.664 22.664v78.294c0 12.517-10.147 22.664-22.664 22.664z" fill="#a9dbf5"/><path d="m265.787 286.905h-30.905c12.517 0 22.664 10.147 22.664 22.664v78.294c0 12.517-10.147 22.664-22.664 22.664h30.905c12.517 0 22.664-10.147 22.664-22.664v-78.294c0-12.517-10.147-22.664-22.664-22.664z" fill="#88c3e0"/><path d="m30.905 375.501v-53.569c0-2.276 1.845-4.121 4.121-4.121h218.398c2.276 0 4.121 1.845 4.121 4.121v53.569c0 2.276-1.845 4.121-4.121 4.121h-218.398c-2.276 0-4.121-1.845-4.121-4.121z" fill="#43809f"/><path d="m78.287 350.777c-8.534 0-15.453-6.918-15.453-15.453v-17.513h30.905v17.513c0 8.534-6.918 15.453-15.452 15.453z" fill="#f78e36"/><path d="m129.803 350.777c-8.534 0-15.453-6.918-15.453-15.453v-17.513h30.905v17.513c.001 8.534-6.918 15.453-15.452 15.453z" fill="#f78e36"/><g fill="#43809f"><path d="m295.607 170.655c1.914-3.1 3.038-6.737 3.038-10.641 0-11.217-9.125-20.342-20.342-20.342h-16.211c-4.143 0-7.5 3.358-7.5 7.5v55.811c0 1.995.795 3.908 2.209 5.315 1.405 1.4 3.308 2.185 5.291 2.185h.033c.002 0 14.902-.066 19.009-.066 12.419 0 22.522-10.104 22.522-22.522 0-6.913-3.132-13.105-8.049-17.24zm-17.304-15.983c2.945 0 5.342 2.396 5.342 5.342 0 2.945-2.396 5.342-5.342 5.342-1.199 0-3.463.007-5.926.015h-2.785v-10.699zm2.831 40.745c-2.135 0-7.178.018-11.542.035v-15.07c.943-.004 1.903-.007 2.834-.01h8.708c4.147 0 7.522 3.375 7.522 7.522s-3.375 7.523-7.522 7.523z"/><path d="m238.645 139.672h-30.821c-4.143 0-7.5 3.358-7.5 7.5s3.357 7.5 7.5 7.5h7.849v48.311c0 4.142 3.357 7.5 7.5 7.5s7.5-3.358 7.5-7.5v-48.311h7.973c4.143 0 7.5-3.358 7.5-7.5s-3.359-7.5-7.501-7.5z"/></g></g></svg>