<svg id="Layer_1" enable-background="new 0 0 512 512" height="512" viewBox="0 0 512 512" width="512" xmlns="http://www.w3.org/2000/svg"><g><path d="m398.457 402.77h-285.182l17.702-53.281c2.098-6.294 8.146-10.559 14.966-10.559h220.114c6.819 0 12.867 4.265 14.966 10.559z" fill="#29cef6"/><path d="m381.023 349.489c-2.098-6.294-8.146-10.559-14.966-10.559h-30.857c6.819 0 12.867 4.265 14.966 10.559l17.434 53.281h30.857z" fill="#22b5ed"/><path d="m377.354 512h-242.708c-12.507 0-22.646-10.139-22.646-22.646v-78.329c0-12.507 10.139-22.646 22.646-22.646h242.707c12.507 0 22.646 10.139 22.646 22.646v78.329c.001 12.507-10.138 22.646-22.645 22.646z" fill="#a9dbf5"/><path d="m377.371 388.378h-30.857c12.497 0 22.629 10.147 22.629 22.664v78.294c0 12.517-10.131 22.664-22.629 22.664h30.857c12.498 0 22.629-10.147 22.629-22.664v-78.294c0-12.517-10.131-22.664-22.629-22.664z" fill="#88c3e0"/><path d="m142.857 476.977v-53.576c0-2.274 1.843-4.118 4.117-4.118h218.051c2.274 0 4.117 1.843 4.117 4.118v53.576c0 2.274-1.843 4.118-4.117 4.118h-218.05c-2.274 0-4.118-1.844-4.118-4.118z" fill="#43809f"/><g fill="#f78e36"><path d="m190.164 452.25c-8.521 0-15.429-6.908-15.429-15.429v-17.537h30.857v17.537c.001 8.521-6.907 15.429-15.428 15.429z"/><path d="m241.6 452.25c-8.521 0-15.429-6.908-15.429-15.429v-17.537h30.857v17.537c.001 8.521-6.907 15.429-15.428 15.429z"/><path d="m368.29 112.94c0 68.662-47.97 85.706-71.361 126.938s-22.206 69.176-40.929 69.176c-18.051 0-18.07-29.997-40.929-69.177-24.561-42.097-71.361-58.275-71.361-126.937 0-62.375 50.274-112.94 112.29-112.94s112.29 50.565 112.29 112.94z"/></g><path d="m256 0c-5.244 0-10.4.37-15.453 1.069 54.702 7.574 96.837 54.769 96.837 111.87 0 68.662-47.97 85.706-71.361 126.938-14.104 24.86-19.274 44.877-25.259 56.864 3.957 7.795 8.242 12.313 15.236 12.313 18.723 0 17.537-27.945 40.928-69.177 23.392-41.232 71.361-58.276 71.361-126.938.001-62.374-50.273-112.939-112.289-112.939z" fill="#f86f1b"/><path d="m312.185 92.433c-2.935-2.922-7.684-2.915-10.606.021l-55.879 56.1-35.481-33.011c-3.032-2.821-7.776-2.65-10.6.382-2.821 3.033-2.65 7.778.382 10.6l40.788 37.948c1.442 1.342 3.276 2.009 5.108 2.009 1.927 0 3.852-.739 5.315-2.207l60.994-61.236c2.923-2.935 2.913-7.683-.021-10.606z" fill="#f3f3f3"/></g></svg>