<svg height="512" width="512" xmlns="http://www.w3.org/2000/svg"><path d="M481.101 413.041H30.899C13.834 413.041 0 399.207 0 382.142v-270.12h512v270.119c0 17.066-13.834 30.9-30.899 30.9z" fill="#a9dbf5"/><path d="M481.095 112.022v301.019c17.069 0 30.905-13.831 30.905-30.893V112.022z" fill="#88c3e0"/><path d="M466.675 463.5H303.901c-7.964 0-14.42-6.456-14.42-14.42V195.761c0-7.964 6.456-14.42 14.42-14.42h162.774c7.964 0 14.42 6.456 14.42 14.42V449.08c0 7.964-6.456 14.42-14.42 14.42z" fill="#f3f3f3"/><path d="M466.672 181.341h-30.905c7.965 0 14.423 6.455 14.423 14.417v253.325c0 7.962-6.457 14.417-14.423 14.417h30.905c7.965 0 14.423-6.455 14.423-14.417V195.758c0-7.962-6.458-14.417-14.423-14.417z" fill="#e4e4e4"/><path d="M466.675 463.5H303.901c-7.964 0-14.42-6.456-14.42-14.42v-36.039h191.614v36.039c0 7.964-6.456 14.42-14.42 14.42z" fill="#ffc328"/><path d="M450.189 413.041v36.042c0 7.962-6.457 14.417-14.423 14.417h30.905c7.965 0 14.423-6.455 14.423-14.417v-36.042z" fill="#ffb200"/><path d="M403.831 197.506h-37.087c-4.143 0-7.5 3.357-7.5 7.5s3.357 7.5 7.5 7.5h37.087c4.143 0 7.5-3.357 7.5-7.5s-3.357-7.5-7.5-7.5zm-49.317 79.298a7.502 7.502 0 00-10.607 0l-29.332 29.332a7.502 7.502 0 00.001 10.608l28.944 28.943c1.464 1.464 3.384 2.196 5.303 2.196s3.839-.732 5.304-2.197a7.498 7.498 0 00-.001-10.606l-23.641-23.64 24.029-24.028a7.503 7.503 0 000-10.608zm101.487 29.332l-29.332-29.332a7.5 7.5 0 00-10.607 10.607l24.029 24.028-23.641 23.64a7.5 7.5 0 1010.608 10.607l28.943-28.943a7.5 7.5 0 000-10.607zm-50.695-47.589c-3.871-1.473-8.203.477-9.673 4.351l-34.684 91.373a7.5 7.5 0 1014.024 5.322l34.684-91.373a7.5 7.5 0 00-4.351-9.673zm-316-91.962h1.311v33.723c0 4.143 3.358 7.5 7.5 7.5s7.5-3.357 7.5-7.5v-41.223a7.5 7.5 0 00-7.5-7.5h-8.811c-4.142 0-7.5 3.357-7.5 7.5s3.358 7.5 7.5 7.5zM52.632 292.287a7.5 7.5 0 007.5-7.5v-41.222a7.5 7.5 0 00-7.5-7.5h-8.811c-4.142 0-7.5 3.357-7.5 7.5s3.358 7.5 7.5 7.5h1.311v33.722a7.5 7.5 0 007.5 7.5zm-4.405-141.543c-10.708 0-19.42 8.712-19.42 19.42v19.064c0 10.708 8.712 19.42 19.42 19.42s19.42-8.712 19.42-19.42v-19.064c0-10.708-8.712-19.42-19.42-19.42zm4.42 38.485c0 2.438-1.983 4.42-4.42 4.42s-4.42-1.982-4.42-4.42v-19.064c0-2.438 1.983-4.42 4.42-4.42s4.42 1.982 4.42 4.42zm45.47 45.995c-10.708 0-19.42 8.712-19.42 19.421v19.063c0 10.709 8.712 19.421 19.42 19.421s19.42-8.712 19.42-19.421v-19.063c0-10.709-8.712-19.421-19.42-19.421zm4.42 38.484c0 2.438-1.983 4.421-4.42 4.421s-4.42-1.983-4.42-4.421v-19.063c0-2.438 1.983-4.421 4.42-4.421s4.42 1.983 4.42 4.421zm45.162 18.579a7.5 7.5 0 007.5-7.5v-41.222a7.5 7.5 0 00-7.5-7.5h-8.811c-4.142 0-7.5 3.357-7.5 7.5s3.358 7.5 7.5 7.5h1.311v33.722a7.5 7.5 0 007.5 7.5zm95.067 0a7.5 7.5 0 007.5-7.5v-41.222a7.5 7.5 0 00-7.5-7.5h-8.811c-4.142 0-7.5 3.357-7.5 7.5s3.358 7.5 7.5 7.5h1.311v33.722a7.5 7.5 0 007.5 7.5zm-49.582-57.063c-10.708 0-19.42 8.712-19.42 19.421v19.063c0 10.709 8.712 19.421 19.42 19.421s19.42-8.712 19.42-19.421v-19.063c0-10.709-8.711-19.421-19.42-19.421zm4.42 38.484c0 2.438-1.983 4.421-4.42 4.421s-4.42-1.983-4.42-4.421v-19.063c0-2.438 1.983-4.421 4.42-4.421s4.42 1.983 4.42 4.421zm-13.231-107.123h1.311v33.723c0 4.143 3.358 7.5 7.5 7.5s7.5-3.357 7.5-7.5v-41.223a7.5 7.5 0 00-7.5-7.5h-8.811c-4.142 0-7.5 3.357-7.5 7.5s3.358 7.5 7.5 7.5zm-41.08-15.841c-10.708 0-19.42 8.712-19.42 19.42v19.064c0 10.708 8.712 19.42 19.42 19.42s19.42-8.712 19.42-19.42v-19.064c.001-10.708-8.711-19.42-19.42-19.42zm4.421 38.485c0 2.438-1.983 4.42-4.42 4.42s-4.42-1.982-4.42-4.42v-19.064c0-2.438 1.983-4.42 4.42-4.42s4.42 1.982 4.42 4.42zm90.647-38.485c-10.708 0-19.42 8.712-19.42 19.42v19.064c0 10.708 8.712 19.42 19.42 19.42s19.42-8.712 19.42-19.42v-19.064c0-10.708-8.712-19.42-19.42-19.42zm4.42 38.485c0 2.438-1.983 4.42-4.42 4.42s-4.42-1.982-4.42-4.42v-19.064c0-2.438 1.983-4.42 4.42-4.42s4.42 1.982 4.42 4.42zM98.117 320.965h-8.811c-4.142 0-7.5 3.357-7.5 7.5s3.358 7.5 7.5 7.5h1.311v33.723c0 4.143 3.358 7.5 7.5 7.5s7.5-3.357 7.5-7.5v-41.223a7.5 7.5 0 00-7.5-7.5zm-49.89-.841c-10.708 0-19.42 8.712-19.42 19.42v19.064c0 10.708 8.712 19.42 19.42 19.42s19.42-8.712 19.42-19.42v-19.064c0-10.708-8.712-19.42-19.42-19.42zm4.42 38.484c0 2.438-1.983 4.42-4.42 4.42s-4.42-1.982-4.42-4.42v-19.064c0-2.438 1.983-4.42 4.42-4.42s4.42 1.982 4.42 4.42zm140.537-37.643h-8.811c-4.142 0-7.5 3.357-7.5 7.5s3.358 7.5 7.5 7.5h1.311v33.723c0 4.143 3.358 7.5 7.5 7.5s7.5-3.357 7.5-7.5v-41.223a7.5 7.5 0 00-7.5-7.5zm-49.891-.841c-10.708 0-19.42 8.712-19.42 19.42v19.064c0 10.708 8.712 19.42 19.42 19.42s19.42-8.712 19.42-19.42v-19.064c.001-10.708-8.711-19.42-19.42-19.42zm4.421 38.484c0 2.438-1.983 4.42-4.42 4.42s-4.42-1.982-4.42-4.42v-19.064c0-2.438 1.983-4.42 4.42-4.42s4.42 1.982 4.42 4.42zm90.647-38.484c-10.708 0-19.42 8.712-19.42 19.42v19.064c0 10.708 8.712 19.42 19.42 19.42s19.42-8.712 19.42-19.42v-19.064c0-10.708-8.712-19.42-19.42-19.42zm4.42 38.484c0 2.438-1.983 4.42-4.42 4.42s-4.42-1.982-4.42-4.42v-19.064c0-2.438 1.983-4.42 4.42-4.42s4.42 1.982 4.42 4.42zM512 122.644H0V79.399C0 62.334 13.834 48.5 30.899 48.5H481.1c17.066 0 30.9 13.834 30.9 30.899z" fill="#43809f"/><path d="M481.095 48.5v74.144H512V79.393c0-17.062-13.837-30.893-30.905-30.893z" fill="#3a7190"/><circle cx="49.455" cy="85.887" fill="#29cef6" r="15.453"/><circle cx="109.37" cy="85.887" fill="#f3f3f3" r="15.453"/><circle cx="169.285" cy="85.887" fill="#f78e36" r="15.453"/></svg>