<svg height="512" viewBox="0 0 128 128" width="512" xmlns="http://www.w3.org/2000/svg"><path d="M108.92 28.5c.054-.663.089-1.332.089-2.01A24.512 24.512 0 0066.488 9.854a22.237 22.237 0 00-30.359 6.778 18.187 18.187 0 00-25.015 23.3 18.182 18.182 0 0017.9 31.649A18.176 18.176 0 0054.2 74.845a19.6 19.6 0 0034.622-2 24.52 24.52 0 1020.1-44.35z" fill="#f0f5f9"/><path d="M126.051 51.881a24.535 24.535 0 01-37.23 20.97 19.592 19.592 0 01-34.62 1.99 18.165 18.165 0 01-25.18-3.26 18.19 18.19 0 01-26.57-20.11A18.182 18.182 0 0029.021 63.1a18.165 18.165 0 0025.18 3.26 19.582 19.582 0 0016.79 9.48c7.92 0 11.6-2.122 11.336-9.217 3.71 2.25 13.219 4.2 17.869 4.2 12.1 0 23.485-11.688 25.485-23.208a24.905 24.905 0 01.37 4.266z" fill="#d9e2e9"/><path d="M70.987 85.329a20.436 20.436 0 01-17.064-9.061 19.178 19.178 0 01-25.154-3.421 19.181 19.181 0 01-18.9-33.333 19.186 19.186 0 0125.919-24.158 23.237 23.237 0 0130.527-6.77 25.512 25.512 0 0143.694 17.9c0 .416-.012.847-.038 1.305A25.521 25.521 0 1189.25 74.25a20.653 20.653 0 01-18.263 11.079zM54.2 73.845a1.011 1.011 0 01.19.018 1 1 0 01.666.465 18.6 18.6 0 0032.856-1.895 1 1 0 011.429-.44 23.52 23.52 0 1019.278-42.542 1 1 0 01-.695-1.034c.057-.708.085-1.339.085-1.93a23.512 23.512 0 00-40.787-15.954 1 1 0 01-1.262.171 21.235 21.235 0 00-28.993 6.474 1 1 0 01-1.294.344 16.991 16.991 0 00-7.82-1.884 17.19 17.19 0 00-15.819 23.9 1 1 0 01-.423 1.259 17.181 17.181 0 0016.918 29.912 1 1 0 011.274.251 17.174 17.174 0 0023.8 3.085 1 1 0 01.597-.2z" fill="#2f3a5a"/><path d="M101.532 77.4A25.528 25.528 0 0179.12 64.087a1 1 0 011.756-.958 23.52 23.52 0 0044.172-11.251 1 1 0 112 0A25.545 25.545 0 01101.532 77.4zM32.528 29.76a1 1 0 01-1-1 23.245 23.245 0 0142.2-13.46 1 1 0 11-1.63 1.159 21.245 21.245 0 00-38.565 12.3 1 1 0 01-1.005 1.001zM15.309 46.984a1 1 0 01-.69-.276 19.011 19.011 0 01-5.95-13.887 19.2 19.2 0 0119.184-19.183 1 1 0 010 2 17.2 17.2 0 00-17.184 17.183A17.03 17.03 0 0016 45.26a1 1 0 01-.69 1.724z" fill="#2f3a5a"/><path d="M25.372 77.257h69.696v11.231H25.372z" fill="#dbe2eb"/><path d="M95.067 89.489H25.372a1 1 0 01-1-1V77.257a1 1 0 011-1h69.695a1 1 0 011 1v11.232a1 1 0 01-1 1zm-68.695-2h67.695v-9.232H26.372z" fill="#2f3a5a"/><rect fill="#9297ab" height="26.258" rx="2.633" width="80.047" x="20.196" y="54.472"/><path d="M100.24 57.1v21a2.633 2.633 0 01-2.63 2.63H22.83a2.633 2.633 0 01-2.63-2.63v-.33h75.21a1.327 1.327 0 001.33-1.32V54.47h.87a2.633 2.633 0 012.63 2.63z" fill="#84879c"/><path d="M97.609 81.729H22.83A3.637 3.637 0 0119.2 78.1V57.105a3.638 3.638 0 013.634-3.633h74.775a3.638 3.638 0 013.634 3.633V78.1a3.637 3.637 0 01-3.634 3.629zM22.83 55.472a1.636 1.636 0 00-1.63 1.633V78.1a1.635 1.635 0 001.634 1.633h74.775a1.635 1.635 0 001.634-1.633V57.105a1.636 1.636 0 00-1.634-1.633z" fill="#2f3a5a"/><rect fill="#9297ab" height="26.258" rx="2.633" width="80.047" x="20.196" y="83.985"/><path d="M100.24 86.62v20.99a2.633 2.633 0 01-2.63 2.63H22.83a2.633 2.633 0 01-2.63-2.63v-.62h74.09a2.637 2.637 0 002.64-2.64V83.98h.68a2.635 2.635 0 012.63 2.64z" fill="#84879c"/><path d="M97.609 111.243H22.83a3.638 3.638 0 01-3.634-3.634v-20.99a3.638 3.638 0 013.634-3.634h74.779a3.638 3.638 0 013.634 3.634v20.99a3.638 3.638 0 01-3.634 3.634zM22.83 84.985a1.636 1.636 0 00-1.63 1.634v20.99a1.636 1.636 0 001.634 1.634h74.775a1.636 1.636 0 001.634-1.634v-20.99a1.636 1.636 0 00-1.634-1.634z" fill="#2f3a5a"/><circle cx="87.808" cy="67.601" fill="#9bc6f1" r="4.542" transform="rotate(-13.34 87.642 67.606)"/><path d="M87.808 73.143a5.542 5.542 0 115.543-5.543 5.548 5.548 0 01-5.543 5.543zm0-9.084a3.542 3.542 0 103.543 3.541 3.545 3.545 0 00-3.543-3.541z" fill="#2f3a5a"/><circle cx="71.248" cy="67.601" fill="#9bc6f1" r="4.542" transform="rotate(-13.34 71.1 67.59)"/><path d="M71.248 73.143a5.542 5.542 0 115.543-5.543 5.548 5.548 0 01-5.543 5.543zm0-9.084a3.542 3.542 0 103.543 3.541 3.545 3.545 0 00-3.543-3.541zm-39.86 26.898h-2.009a1 1 0 010-2h2.009a1 1 0 010 2zm0 4.821h-2.009a1 1 0 010-2h2.009a1 1 0 010 2zm0 4.822h-2.009a1 1 0 110-2h2.009a1 1 0 010 2zm0 4.822h-2.009a1 1 0 110-2h2.009a1 1 0 010 2zm6.631-14.465h-2.01a1 1 0 010-2h2.01a1 1 0 110 2zm0 4.821h-2.01a1 1 0 010-2h2.01a1 1 0 010 2zm0 4.822h-2.01a1 1 0 010-2h2.01a1 1 0 110 2zm0 4.822h-2.01a1 1 0 110-2h2.01a1 1 0 110 2zm6.63-14.465H42.64a1 1 0 110-2h2.009a1 1 0 010 2zm0 4.821H42.64a1 1 0 010-2h2.009a1 1 0 110 2zm0 4.822H42.64a1 1 0 110-2h2.009a1 1 0 010 2zm0 4.822H42.64a1 1 0 010-2h2.009a1 1 0 010 2zm6.63-14.465H49.27a1 1 0 010-2h2.009a1 1 0 010 2zm0 4.821H49.27a1 1 0 110-2h2.009a1 1 0 110 2zm0 4.822H49.27a1 1 0 010-2h2.009a1 1 0 010 2zm0 4.822H49.27a1 1 0 010-2h2.009a1 1 0 010 2zm6.63-14.465H55.9a1 1 0 010-2h2.009a1 1 0 010 2zm0 4.821H55.9a1 1 0 110-2h2.009a1 1 0 110 2zm0 4.822H55.9a1 1 0 010-2h2.009a1 1 0 010 2zm0 4.822H55.9a1 1 0 010-2h2.009a1 1 0 010 2zm6.63-14.465H62.53a1 1 0 010-2h2.009a1 1 0 010 2zm0 4.821H62.53a1 1 0 110-2h2.009a1 1 0 010 2zm0 4.822H62.53a1 1 0 010-2h2.009a1 1 0 010 2zm0 4.822H62.53a1 1 0 010-2h2.009a1 1 0 110 2zm6.63-14.465H69.16a1 1 0 010-2h2.009a1 1 0 010 2zm0 4.821H69.16a1 1 0 010-2h2.009a1 1 0 010 2zm0 4.822H69.16a1 1 0 010-2h2.009a1 1 0 010 2zm0 4.822H69.16a1 1 0 010-2h2.009a1 1 0 110 2zM77.8 90.957h-2.009a1 1 0 010-2H77.8a1 1 0 010 2zm0 4.821h-2.009a1 1 0 010-2H77.8a1 1 0 010 2zm0 4.822h-2.009a1 1 0 010-2H77.8a1 1 0 010 2zm0 4.822h-2.009a1 1 0 010-2H77.8a1 1 0 010 2zm6.63-14.465h-2.01a1 1 0 010-2h2.01a1 1 0 010 2zm0 4.821h-2.01a1 1 0 010-2h2.01a1 1 0 010 2zm0 4.822h-2.01a1 1 0 010-2h2.01a1 1 0 010 2zm0 4.822h-2.01a1 1 0 110-2h2.01a1 1 0 010 2zm6.63-14.465h-2.009a1 1 0 110-2h2.009a1 1 0 010 2zm0 4.821h-2.009a1 1 0 010-2h2.009a1 1 0 010 2zm0 4.822h-2.009a1 1 0 110-2h2.009a1 1 0 010 2zm0 4.822h-2.009a1 1 0 010-2h2.009a1 1 0 010 2z" fill="#2f3a5a"/><path d="M28.565 61.528H39.91v3.667H28.565z" fill="#bac2d3"/><path d="M39.91 66.195H28.565a1 1 0 01-1-1v-3.667a1 1 0 011-1H39.91a1 1 0 011 1v3.667a1 1 0 01-1 1zm-10.345-2h9.345v-1.667h-9.345z" fill="#2f3a5a"/><path d="M28.565 70.006H39.91v3.667H28.565z" fill="#bac2d3"/><path d="M39.91 74.673H28.565a1 1 0 01-1-1v-3.667a1 1 0 011-1H39.91a1 1 0 011 1v3.667a1 1 0 01-1 1zm-10.345-2h9.345v-1.667h-9.345z" fill="#2f3a5a"/></svg>