<svg xmlns="http://www.w3.org/2000/svg" viewBox="0 0 512 512"><path d="M414.897 422.695h61.793c19.501 0 35.31-15.809 35.31-35.31V69.591c0-19.501-15.809-35.31-35.31-35.31H35.31C15.809 34.281 0 50.09 0 69.591v317.793c0 19.501 15.809 35.31 35.31 35.31h291.31" fill="#e64c3c"/><path d="M57.379 343.247h150.069c12.188 0 22.069 9.881 22.069 22.069 0 12.188-9.881 22.069-22.069 22.069H57.379c-12.188 0-22.069-9.881-22.069-22.069 0-12.189 9.881-22.069 22.069-22.069z" fill="#c03a2b"/><path d="M35.31 219.66h26.483a8.828 8.828 0 000-17.656H35.31a8.828 8.828 0 000 17.656zm61.793 0h132.414a8.828 8.828 0 000-17.656H97.103a8.828 8.828 0 000 17.656zM35.31 263.798h132.414a8.828 8.828 0 000-17.656H35.31a8.828 8.828 0 000 17.656zm194.207 26.483H35.31a8.828 8.828 0 000 17.656h194.207a8.828 8.828 0 000-17.656z" fill="#802d40"/><path d="M88.276 69.591a8.828 8.828 0 00-8.828 8.828v35.31h-35.31v-35.31a8.828 8.828 0 00-17.656 0v97.103a8.828 8.828 0 0017.656 0v-44.138h35.31v44.138a8.828 8.828 0 0017.656 0V78.419a8.83 8.83 0 00-8.828-8.828zm79.448 0h-52.966a8.828 8.828 0 000 17.656h17.655v88.276a8.828 8.828 0 0017.656 0V87.247h17.655a8.828 8.828 0 000-17.656zm79.448 0h-52.966a8.828 8.828 0 000 17.656h17.655v88.276a8.828 8.828 0 0017.656 0V87.247h17.655a8.828 8.828 0 000-17.656zm57.38 0h-30.897a8.828 8.828 0 00-8.828 8.828v97.103a8.828 8.828 0 0017.656 0v-44.138h22.069c17.064 0 30.897-13.833 30.897-30.897s-13.834-30.896-30.897-30.896zm0 44.138h-22.069V87.247h22.069c7.313 0 13.241 5.928 13.241 13.241s-5.928 13.241-13.241 13.241zm75.034 8.828a17.655 17.655 0 01-12.482-30.146c6.991-6.664 17.983-6.664 24.973 0a17.565 17.565 0 015.164 12.491 8.828 8.828 0 0017.656 0c0-19.501-15.809-35.31-35.31-35.31s-35.31 15.809-35.31 35.31 15.809 35.31 35.31 35.31c9.751 0 17.655 7.904 17.655 17.655a18.216 18.216 0 01-2.225 8.642 8.828 8.828 0 003.624 11.948 8.828 8.828 0 0011.948-3.624 35.364 35.364 0 00-31.003-52.276z" fill="#e6e7e8"/><path d="M414.897 343.247v125.652a8.827 8.827 0 01-13.365 7.565l-26.236-15.731a8.827 8.827 0 00-9.075 0l-26.236 15.731a8.826 8.826 0 01-13.365-7.565V343.247h88.277z" fill="#f29c1f"/><path d="M376.196 179.142l24.126-7.812a17.655 17.655 0 0121.186 8.766l11.538 22.581a17.582 17.582 0 007.689 7.689l22.581 11.538a17.655 17.655 0 018.766 21.186l-7.812 24.126a17.736 17.736 0 000 10.876l7.812 24.126a17.655 17.655 0 01-8.766 21.186l-22.581 11.538a17.582 17.582 0 00-7.689 7.689l-11.538 22.581a17.655 17.655 0 01-21.186 8.766l-24.126-7.812a17.736 17.736 0 00-10.876 0l-24.126 7.812a17.655 17.655 0 01-21.186-8.766l-11.538-22.581a17.582 17.582 0 00-7.689-7.689L278.2 323.404a17.655 17.655 0 01-8.766-21.186l7.812-24.126a17.736 17.736 0 000-10.876l-7.812-24.126a17.655 17.655 0 018.766-21.186l22.581-11.538a17.582 17.582 0 007.689-7.689l11.538-22.581a17.655 17.655 0 0121.186-8.766l24.126 7.812a17.736 17.736 0 0010.876 0z" fill="#f0c419"/><circle cx="370.759" cy="272.626" r="61.793" fill="#e6e7e8"/></svg>