<svg height="512" width="512" xmlns="http://www.w3.org/2000/svg"><path d="M212.407 303.1H101.226C82.353 303.1 67 318.479 67 337.385v76.233c0 18.904 15.353 34.284 34.226 34.284h23.519c4.135 0 7.487-3.357 7.487-7.5s-3.352-7.5-7.487-7.5h-23.519c-10.615 0-19.252-8.65-19.252-19.284v-76.233c0-10.634 8.636-19.285 19.252-19.285h111.181c4.135 0 7.487-3.357 7.487-7.5s-3.352-7.5-7.487-7.5zm198.367 0H304.898c-4.135 0-7.487 3.357-7.487 7.5s3.352 7.5 7.487 7.5h105.876c10.615 0 19.252 8.651 19.252 19.285v76.233c0 10.634-8.636 19.284-19.252 19.284h-20.866c-4.135 0-7.487 3.357-7.487 7.5s3.352 7.5 7.487 7.5h20.866c18.873 0 34.226-15.38 34.226-34.284v-76.233c0-18.906-15.353-34.285-34.226-34.285z" fill="#43809f"/><path d="M376.529 160.165c-.217 37.43-17.493 70.813-44.444 92.772-12.398 10.101-19.425 25.374-19.425 41.366v7.829H199.34v-7.825c0-16.256-7.468-31.5-20.006-41.846-26.788-22.104-43.865-55.56-43.865-93.009 0-66.57 53.96-120.53 120.529-120.531 66.553-.002 120.917 54.692 120.531 121.244z" fill="#ffc328"/><path d="M255.998 38.921c-5.251 0-10.422.338-15.495.989 59.332 7.661 105.476 58.922 105.121 120.255-.217 37.43-17.493 70.813-44.444 92.773-12.398 10.101-19.425 25.374-19.425 41.366v7.828h30.905v-7.828c0-15.992 7.027-31.265 19.425-41.366 26.951-21.959 44.227-55.343 44.444-92.773.386-66.552-53.978-121.245-120.531-121.244z" fill="#ffb200"/><path d="M398.97 402.77H113.341l17.729-53.281c2.102-6.294 8.159-10.559 14.989-10.559h220.459c6.83 0 12.888 4.265 14.989 10.559z" fill="#29cef6"/><path d="M381.219 349.489c-2.102-6.294-8.159-10.559-14.989-10.559h-30.905c6.83 0 12.888 4.265 14.989 10.559l17.462 53.281h30.905z" fill="#22b5ed"/><path d="M377.561 512H134.439c-12.517 0-22.664-10.147-22.664-22.664v-78.294c0-12.517 10.147-22.664 22.664-22.664h243.123c12.517 0 22.664 10.147 22.664 22.664v78.294C400.225 501.853 390.078 512 377.561 512z" fill="#a9dbf5"/><path d="M377.561 388.378h-30.905c12.517 0 22.664 10.147 22.664 22.664v78.294c0 12.517-10.147 22.664-22.664 22.664h30.905c12.517 0 22.664-10.147 22.664-22.664v-78.294c0-12.517-10.147-22.664-22.664-22.664z" fill="#88c3e0"/><path d="M142.68 476.974v-53.569a4.121 4.121 0 014.121-4.121h218.398a4.121 4.121 0 014.121 4.121v53.569a4.121 4.121 0 01-4.121 4.121H146.801a4.121 4.121 0 01-4.121-4.121z" fill="#43809f"/><path d="M190.061 452.25c-8.534 0-15.453-6.918-15.453-15.453v-17.513h30.905v17.513c.001 8.534-6.917 15.453-15.452 15.453zm51.516 0c-8.534 0-15.453-6.918-15.453-15.453v-17.513h30.905v17.513c.001 8.534-6.917 15.453-15.452 15.453zm17.868-339.993l13.296 26.936a6.535 6.535 0 004.92 3.574l29.732 4.319c5.36.779 7.5 7.364 3.622 11.144l-21.514 20.967a6.531 6.531 0 00-1.879 5.783l5.079 29.605c.916 5.337-4.688 9.407-9.482 6.887l-26.593-13.978a6.534 6.534 0 00-6.082 0l-26.593 13.978c-4.794 2.52-10.397-1.55-9.482-6.887l5.079-29.605a6.532 6.532 0 00-1.879-5.783l-21.514-20.967c-3.878-3.78-1.738-10.365 3.622-11.144l29.732-4.319a6.535 6.535 0 004.92-3.574l13.296-26.936c2.397-4.856 9.323-4.856 11.72 0z" fill="#f78e36"/><path d="M256 0a7.499 7.499 0 00-7.5 7.5v10.302c0 4.143 3.357 7.5 7.5 7.5s7.5-3.357 7.5-7.5V7.5c0-4.143-3.357-7.5-7.5-7.5zm-45.58 14.125a7.502 7.502 0 00-14.071 5.201l3.578 9.681a7.503 7.503 0 007.036 4.901 7.502 7.502 0 007.035-10.103zm-48.048 24.302a7.5 7.5 0 00-11.418 9.728l6.725 7.892a7.486 7.486 0 005.713 2.636 7.5 7.5 0 005.705-12.364zM354.68 264.128a7.501 7.501 0 00-11.418 9.728l6.724 7.892a7.484 7.484 0 005.713 2.636 7.501 7.501 0 005.705-12.364zM134.751 82.622l-9.059-5.15a7.496 7.496 0 00-10.227 2.813 7.5 7.5 0 002.813 10.227l9.059 5.15a7.494 7.494 0 0010.226-2.813 7.499 7.499 0 00-2.812-10.227zm259.096 147.316l-9.06-5.151a7.497 7.497 0 00-10.227 2.813 7.5 7.5 0 002.813 10.227l9.06 5.151a7.494 7.494 0 0010.226-2.813 7.5 7.5 0 00-2.812-10.227zM102.25 141.307l10.302 1.789a7.503 7.503 0 008.673-6.107 7.501 7.501 0 00-6.106-8.673l-10.302-1.789a7.501 7.501 0 00-2.567 14.78zm307.5 38.172l-10.302-1.789a7.501 7.501 0 00-2.567 14.779l10.302 1.789a7.503 7.503 0 008.673-6.107 7.5 7.5 0 00-6.106-8.672zm-288.525 4.496c-.709-4.081-4.594-6.81-8.673-6.106l-10.302 1.789a7.501 7.501 0 002.567 14.78l10.302-1.789a7.504 7.504 0 006.106-8.674zm269.55-46.807a7.503 7.503 0 008.673 6.107l10.302-1.789a7.501 7.501 0 00-2.567-14.779l-10.302 1.789a7.5 7.5 0 00-6.106 8.672zm-263.438 88.135l-9.059 5.15a7.5 7.5 0 007.413 13.04l9.059-5.15a7.5 7.5 0 00-7.413-13.04zm253.75-128.145c1.256 0 2.53-.316 3.7-.981l9.06-5.151a7.5 7.5 0 00-7.414-13.04l-9.06 5.151a7.5 7.5 0 003.714 14.021zM168.252 264.072a7.498 7.498 0 00-10.573.845l-6.725 7.892a7.499 7.499 0 00.845 10.573 7.47 7.47 0 004.86 1.791 7.486 7.486 0 005.713-2.636l6.725-7.892a7.5 7.5 0 00-.845-10.573zM360.559 38.371a7.498 7.498 0 00-10.573.845l-6.724 7.892a7.5 7.5 0 1011.418 9.728l6.724-7.892a7.501 7.501 0 00-.845-10.573zm-48.672-27.712a7.5 7.5 0 00-9.635 4.436l-3.577 9.68a7.5 7.5 0 007.035 10.102 7.503 7.503 0 007.036-4.902l3.577-9.68a7.502 7.502 0 00-4.436-9.636z" fill="#ffb200"/><path d="M275.97 348.228h-39.94c-20.356 0-36.858-16.502-36.858-36.858v-16.738h113.655v16.738c.001 20.356-16.501 36.858-36.857 36.858z" fill="#43809f"/><path d="M281.922 294.632v16.738c0 20.356-16.502 36.858-36.858 36.858h30.905c20.356 0 36.858-16.501 36.858-36.858v-16.738z" fill="#3a7190"/></svg>