<svg height="512" width="512" xmlns="http://www.w3.org/2000/svg"><path d="M408.467 512H103.533c-17.069 0-30.905-13.837-30.905-30.905V61.811c0-17.069 13.837-30.905 30.905-30.905h304.934c17.069 0 30.905 13.837 30.905 30.905v419.284c0 17.068-13.837 30.905-30.905 30.905z" fill="#f78e36"/><path d="M408.467 30.905V512c17.069 0 30.905-13.837 30.905-30.905V61.811c0-17.069-13.837-30.906-30.905-30.906z" fill="#f86f1b"/><path d="M103.533 477.095V65.811a4 4 0 014-4h296.934a4 4 0 014 4v411.284a4 4 0 01-4 4H107.533a4 4 0 01-4-4z" fill="#f3f3f3"/><path d="M377.561 61.811v419.284h26.905a4 4 0 004-4V65.811a4 4 0 00-4-4z" fill="#e4e4e4"/><path d="M357.988 30.905H154.012a6.18 6.18 0 01-6.181-6.181V6.181A6.18 6.18 0 01154.012 0h203.976a6.18 6.18 0 016.181 6.181v18.543a6.18 6.18 0 01-6.181 6.181z" fill="#a9dbf5"/><path d="M357.988 0h-30.905a6.18 6.18 0 016.181 6.181v18.543a6.18 6.18 0 01-6.181 6.181h30.905a6.18 6.18 0 006.181-6.181V6.181A6.18 6.18 0 00357.988 0z" fill="#88c3e0"/><path d="M335.324 23.405a7.499 7.499 0 00-7.5 7.5c0 26.539-21.591 48.13-48.13 48.13h-47.389c-26.539 0-48.13-21.591-48.13-48.13 0-4.143-3.357-7.5-7.5-7.5s-7.5 3.357-7.5 7.5c0 34.81 28.32 63.13 63.13 63.13h47.389c34.81 0 63.13-28.32 63.13-63.13a7.5 7.5 0 00-7.5-7.5zM295.546 201.35a7.499 7.499 0 00-7.5 7.5v149.364h-92.348c-4.143 0-7.5 3.357-7.5 7.5s3.357 7.5 7.5 7.5h99.848c4.143 0 7.5-3.357 7.5-7.5V208.85a7.5 7.5 0 00-7.5-7.5z" fill="#43809f"/><path d="M301.406 136.624l13.296 26.936a6.535 6.535 0 004.92 3.574l29.732 4.319c5.36.779 7.5 7.364 3.622 11.144l-21.514 20.967a6.531 6.531 0 00-1.879 5.783l5.079 29.605c.916 5.337-4.687 9.407-9.482 6.887l-26.593-13.978a6.534 6.534 0 00-6.082 0l-26.593 13.978c-4.794 2.52-10.397-1.55-9.482-6.887l5.079-29.605a6.532 6.532 0 00-1.879-5.783l-21.514-20.967c-3.878-3.78-1.738-10.365 3.622-11.144l29.732-4.319a6.535 6.535 0 004.92-3.574l13.296-26.936c2.397-4.856 9.323-4.856 11.72 0z" fill="#ffc328"/><path d="M140.62 146.06h41.207c4.143 0 7.5-3.357 7.5-7.5s-3.357-7.5-7.5-7.5H140.62c-4.143 0-7.5 3.357-7.5 7.5s3.358 7.5 7.5 7.5zm41.207 18.996H140.62c-4.143 0-7.5 3.357-7.5 7.5s3.357 7.5 7.5 7.5h41.207c4.143 0 7.5-3.357 7.5-7.5s-3.357-7.5-7.5-7.5zm0 33.996H140.62c-4.143 0-7.5 3.357-7.5 7.5s3.357 7.5 7.5 7.5h41.207c4.143 0 7.5-3.357 7.5-7.5s-3.357-7.5-7.5-7.5zm-50.435 231.514c-.575 4.068-1.948 9.893-3.174 14.627a10.026 10.026 0 01-9.708 7.514h-14.011a10.027 10.027 0 01-9.709-7.514c-1.226-4.734-2.599-10.559-3.174-14.627-.428-3.031-2.252-5.684-4.909-7.211l-12.946-7.442c-2.654-1.526-5.865-1.774-8.706-.63-3.833 1.543-9.61 3.278-14.352 4.591-4.404 1.219-9.075-.676-11.364-4.624l-6.996-12.065a9.97 9.97 0 011.669-12.139c3.508-3.428 7.895-7.531 11.147-10.06a9.92 9.92 0 003.81-7.839v-14.865a9.92 9.92 0 00-3.81-7.839c-3.253-2.53-7.64-6.633-11.147-10.06a9.97 9.97 0 01-1.669-12.139l6.996-12.065c2.289-3.948 6.96-5.842 11.364-4.624 4.742 1.312 10.519 3.048 14.352 4.591 2.841 1.144 6.051.896 8.706-.63l12.946-7.442c2.657-1.527 4.481-4.181 4.909-7.211.575-4.068 1.948-9.893 3.174-14.627a10.026 10.026 0 019.709-7.514h14.011c4.576 0 8.563 3.092 9.708 7.514 1.226 4.734 2.599 10.559 3.174 14.627.428 3.031 2.252 5.684 4.909 7.211l12.946 7.442c2.654 1.526 5.865 1.774 8.706.63 3.832-1.543 9.61-3.278 14.352-4.591 4.404-1.219 9.075.676 11.364 4.624l6.996 12.065a9.97 9.97 0 01-1.669 12.139c-3.508 3.428-7.895 7.531-11.147 10.06a9.92 9.92 0 00-3.81 7.839v14.865a9.92 9.92 0 003.81 7.839c3.253 2.53 7.64 6.633 11.147 10.06a9.97 9.97 0 011.669 12.139l-6.996 12.065c-2.289 3.948-6.96 5.842-11.364 4.624-4.742-1.312-10.519-3.048-14.352-4.591-2.841-1.144-6.051-.896-8.706.63l-12.946 7.442c-2.657 1.527-4.48 4.181-4.909 7.211zm14.61-64.852c0-18.97-15.445-34.348-34.497-34.348s-34.497 15.378-34.497 34.348 15.445 34.348 34.497 34.348 34.497-15.378 34.497-34.348z" fill="#43809f"/><path d="M476.875 447.614H390.17a4.125 4.125 0 01-4.125-4.125V328.117a4.125 4.125 0 014.125-4.125h86.705a4.125 4.125 0 014.125 4.125V443.49a4.125 4.125 0 01-4.125 4.124z" fill="#29cef6"/><path d="M476.872 323.992h-30.963a4.124 4.124 0 014.128 4.121v115.38a4.124 4.124 0 01-4.128 4.121h30.963a4.124 4.124 0 004.128-4.121v-115.38a4.124 4.124 0 00-4.128-4.121z" fill="#22b5ed"/><path d="M412.904 384.808c4.143 0 7.5-3.357 7.5-7.5v-12.534c0-4.143-3.357-7.5-7.5-7.5s-7.5 3.357-7.5 7.5v12.534a7.5 7.5 0 007.5 7.5zm20.287 0c4.143 0 7.5-3.357 7.5-7.5v-27.506c0-4.143-3.357-7.5-7.5-7.5s-7.5 3.357-7.5 7.5v27.506a7.5 7.5 0 007.5 7.5zm20.287-21.267a7.499 7.499 0 00-7.5 7.5v6.267c0 4.143 3.357 7.5 7.5 7.5s7.5-3.357 7.5-7.5v-6.267a7.5 7.5 0 00-7.5-7.5zm0 28.653h-40.573c-4.143 0-7.5 3.357-7.5 7.5s3.357 7.5 7.5 7.5h40.573c4.143 0 7.5-3.357 7.5-7.5s-3.358-7.5-7.5-7.5z" fill="#f3f3f3"/></svg>