<svg height="512" width="512" xmlns="http://www.w3.org/2000/svg"><path d="M231.556 212.701H1.558l17.729-53.281c2.102-6.294 8.159-10.559 14.989-10.559h164.829c6.83 0 12.888 4.265 14.989 10.559z" fill="#29cef6"/><path d="M213.814 159.421c-2.102-6.294-8.159-10.559-14.989-10.559H167.92c6.83 0 12.888 4.265 14.989 10.559l17.462 53.281h30.905z" fill="#22b5ed"/><path d="M210.157 321.932H22.664C10.147 321.932 0 311.785 0 299.268v-78.294c0-12.517 10.147-22.664 22.664-22.664h187.493c12.517 0 22.664 10.147 22.664 22.664v78.294c0 12.517-10.147 22.664-22.664 22.664z" fill="#a9dbf5"/><path d="M30.905 286.905v-53.569a4.121 4.121 0 014.121-4.121h162.769a4.121 4.121 0 014.121 4.121v53.569a4.121 4.121 0 01-4.121 4.121H35.026a4.121 4.121 0 01-4.121-4.121z" fill="#43809f"/><path d="M78.287 262.181c-8.534 0-15.453-6.918-15.453-15.453v-17.513h30.905v17.513c0 8.535-6.918 15.453-15.452 15.453zm51.516 0c-8.534 0-15.453-6.918-15.453-15.453v-17.513h30.905v17.513c.001 8.535-6.918 15.453-15.452 15.453z" fill="#f78e36"/><path d="M510.735 212.701H280.737l17.729-53.281c2.102-6.294 8.159-10.559 14.989-10.559h164.829c6.83 0 12.888 4.265 14.989 10.559z" fill="#29cef6"/><path d="M492.993 159.421c-2.102-6.294-8.159-10.559-14.989-10.559h-30.905c6.83 0 12.888 4.265 14.989 10.559l17.462 53.281h30.905z" fill="#22b5ed"/><path d="M489.336 321.932H301.843c-12.517 0-22.664-10.147-22.664-22.664v-78.294c0-12.517 10.147-22.664 22.664-22.664h187.493c12.517 0 22.664 10.147 22.664 22.664v78.294c0 12.517-10.147 22.664-22.664 22.664z" fill="#a9dbf5"/><path d="M489.336 198.31h-30.905c12.517 0 22.664 10.147 22.664 22.664v78.294c0 12.517-10.147 22.664-22.664 22.664h30.905c12.517 0 22.664-10.147 22.664-22.664v-78.294c0-12.517-10.147-22.664-22.664-22.664z" fill="#88c3e0"/><path d="M310.085 286.905v-53.569a4.121 4.121 0 014.121-4.121h162.769a4.121 4.121 0 014.121 4.121v53.569a4.121 4.121 0 01-4.121 4.121h-162.77a4.12 4.12 0 01-4.12-4.121z" fill="#43809f"/><path d="M357.466 262.181c-8.534 0-15.453-6.918-15.453-15.453v-17.513h30.905v17.513c.001 8.535-6.918 15.453-15.452 15.453zm51.516 0c-8.534 0-15.453-6.918-15.453-15.453v-17.513h30.905v17.513c.001 8.535-6.918 15.453-15.452 15.453z" fill="#f78e36"/><path d="M371.146 402.77H141.148l17.729-53.281c2.102-6.294 8.159-10.559 14.989-10.559h164.829c6.83 0 12.888 4.265 14.989 10.559z" fill="#29cef6"/><path d="M353.404 349.489c-2.102-6.294-8.159-10.559-14.989-10.559H307.51c6.83 0 12.888 4.265 14.989 10.559l17.462 53.281h30.905z" fill="#22b5ed"/><path d="M349.746 512H162.254c-12.517 0-22.664-10.147-22.664-22.664v-78.294c0-12.517 10.147-22.664 22.664-22.664h187.493c12.517 0 22.664 10.147 22.664 22.664v78.294C372.41 501.853 362.263 512 349.746 512z" fill="#a9dbf5"/><path d="M349.746 388.378h-30.905c12.517 0 22.664 10.147 22.664 22.664v78.294c0 12.517-10.147 22.664-22.664 22.664h30.905c12.517 0 22.664-10.147 22.664-22.664v-78.294c0-12.517-10.147-22.664-22.664-22.664z" fill="#88c3e0"/><path d="M170.495 476.974v-53.569a4.121 4.121 0 014.121-4.121h162.769a4.121 4.121 0 014.121 4.121v53.569a4.121 4.121 0 01-4.121 4.121H174.616a4.121 4.121 0 01-4.121-4.121z" fill="#43809f"/><path d="M217.876 452.25c-8.534 0-15.453-6.918-15.453-15.453v-17.513h30.905v17.513c.001 8.534-6.917 15.453-15.452 15.453zm51.516 0c-8.534 0-15.453-6.918-15.453-15.453v-17.513h30.905v17.513c.001 8.534-6.917 15.453-15.452 15.453z" fill="#f78e36"/><path d="M314.472 356.958H197.528c-13.792 0-24.973-11.181-24.973-24.973V215.041c0-13.792 11.181-24.973 24.973-24.973h116.944c13.792 0 24.973 11.181 24.973 24.973v116.944c0 13.792-11.181 24.973-24.973 24.973z" fill="#7be492"/><path d="M314.472 190.068h-30.905c13.792 0 24.973 11.181 24.973 24.973v116.944c0 13.792-11.181 24.973-24.973 24.973h30.905c13.792 0 24.973-11.181 24.973-24.973V215.041c0-13.792-11.181-24.973-24.973-24.973z" fill="#45d987"/><path d="M203.461 323.992V223.034a2.06 2.06 0 012.06-2.06h100.958a2.06 2.06 0 012.06 2.06v100.958a2.06 2.06 0 01-2.06 2.06H205.521a2.06 2.06 0 01-2.06-2.06z" fill="#f78e36"/><path d="M235.911 293.582v-40.138c0-3.663 3.961-5.887 6.995-3.927l31.064 20.069c2.825 1.825 2.825 6.029 0 7.854l-31.064 20.069c-3.034 1.96-6.995-.264-6.995-3.927z" fill="#f3f3f3"/><path d="M454.577 166.889H337.633c-13.792 0-24.973-11.181-24.973-24.973V24.973C312.66 11.181 323.841 0 337.633 0h116.944c13.792 0 24.973 11.181 24.973 24.973v116.944c-.001 13.792-11.181 24.972-24.973 24.972z" fill="#7be492"/><path d="M454.577 0h-30.905c13.792 0 24.973 11.181 24.973 24.973v116.944c0 13.792-11.181 24.973-24.973 24.973h30.905c13.792 0 24.973-11.181 24.973-24.973V24.973C479.549 11.181 468.369 0 454.577 0z" fill="#45d987"/><path d="M343.565 133.924V32.966a2.06 2.06 0 012.06-2.06h100.958a2.06 2.06 0 012.06 2.06v100.958a2.06 2.06 0 01-2.06 2.06H345.626a2.061 2.061 0 01-2.061-2.06z" fill="#f78e36"/><path d="M418.201 51.001h-40.249a7.5 7.5 0 00-7.5 7.5v38.805h-.837a7.5 7.5 0 000 15h8.337a7.5 7.5 0 007.5-7.5V66.001h25.249v31.305h-2.275a7.5 7.5 0 000 15h9.775a7.5 7.5 0 007.5-7.5V58.501a7.5 7.5 0 00-7.5-7.5z" fill="#f3f3f3"/><path d="M175.397 166.889H58.454c-13.792 0-24.973-11.181-24.973-24.973V24.973C33.481 11.181 44.662 0 58.454 0h116.944c13.792 0 24.973 11.181 24.973 24.973v116.944c-.001 13.792-11.181 24.972-24.974 24.972z" fill="#7be492"/><path d="M175.397 0h-30.905c13.792 0 24.973 11.181 24.973 24.973v116.944c0 13.792-11.181 24.973-24.973 24.973h30.905c13.792 0 24.973-11.181 24.973-24.973V24.973C200.37 11.181 189.19 0 175.397 0z" fill="#45d987"/><path d="M64.386 133.924V32.966a2.06 2.06 0 012.06-2.06h100.958a2.06 2.06 0 012.06 2.06v100.958a2.06 2.06 0 01-2.06 2.06H66.447a2.061 2.061 0 01-2.061-2.06z" fill="#f78e36"/><path d="M167.404 135.984H66.447a2.06 2.06 0 01-2.06-2.06v-33.556h105.078v33.556c0 1.137-.923 2.06-2.061 2.06z" fill="#29cef6"/><path d="M116.926 100.367h52.539l-24.656-31.048a2.06 2.06 0 00-3.227 0z" fill="#e4e4e4"/><path d="M64.386 100.367h64.862L98.431 61.56a2.06 2.06 0 00-3.227 0z" fill="#f3f3f3"/></svg>