<svg height="512" width="512" xmlns="http://www.w3.org/2000/svg"><path d="M377.144 298.992H134.856c-12.748 0-23.082-10.334-23.082-23.082v-82.058c0-12.748 10.334-23.082 23.082-23.082h242.287c12.748 0 23.082 10.334 23.082 23.082v82.058c0 12.748-10.334 23.082-23.081 23.082z" fill="#88c3e0"/><path d="M377.561 170.771h-30.905c12.517 0 22.664 10.525 22.664 23.507v81.207c0 12.983-10.147 23.507-22.664 23.507h30.905c12.517 0 22.664-10.525 22.664-23.507v-81.207c0-12.983-10.147-23.507-22.664-23.507z" fill="#6eabc9"/><path d="M240.547 410.604h30.905v49.294h-30.905zM508 512H4a4 4 0 01-4-4v-22.905a4 4 0 014-4h504a4 4 0 014 4V508a4 4 0 01-4 4z" fill="#43809f"/><path d="M398.969 63.84H113.341l17.729-53.281C133.172 4.265 139.23 0 146.06 0h220.459c6.83 0 12.888 4.265 14.989 10.559z" fill="#29cef6"/><path d="M381.219 10.559C379.117 4.265 373.059 0 366.229 0h-30.905c6.83 0 12.888 4.265 14.989 10.559l17.462 53.281h30.905z" fill="#22b5ed"/><path d="M377.561 173.07H134.439c-12.517 0-22.664-10.147-22.664-22.664V72.113c0-12.517 10.147-22.664 22.664-22.664h243.123c12.517 0 22.664 10.147 22.664 22.664v78.294c-.001 12.516-10.148 22.663-22.665 22.663z" fill="#a9dbf5"/><path d="M377.561 49.449h-30.905c12.517 0 22.664 10.147 22.664 22.664v78.294c0 12.517-10.147 22.664-22.664 22.664h30.905c12.517 0 22.664-10.147 22.664-22.664V72.113c0-12.517-10.147-22.664-22.664-22.664z" fill="#88c3e0"/><path d="M142.68 138.044V84.475a4.121 4.121 0 014.121-4.121h218.398a4.121 4.121 0 014.121 4.121v53.569a4.121 4.121 0 01-4.121 4.121H146.801a4.121 4.121 0 01-4.121-4.121z" fill="#43809f"/><path d="M190.061 113.32c-8.534 0-15.453-6.918-15.453-15.453V80.354h30.905v17.513c.001 8.535-6.917 15.453-15.452 15.453zm51.516 0c-8.534 0-15.453-6.918-15.453-15.453V80.354h30.905v17.513c.001 8.535-6.917 15.453-15.452 15.453z" fill="#f78e36"/><path d="M142.68 261.666v-53.569a4.121 4.121 0 014.121-4.121h218.398a4.121 4.121 0 014.121 4.121v53.569a4.121 4.121 0 01-4.121 4.121H146.801a4.121 4.121 0 01-4.121-4.121z" fill="#43809f"/><path d="M190.061 236.942c-8.534 0-15.453-6.918-15.453-15.453v-17.513h30.905v17.513c.001 8.534-6.917 15.453-15.452 15.453zm51.516 0c-8.534 0-15.453-6.918-15.453-15.453v-17.513h30.905v17.513c.001 8.534-6.917 15.453-15.452 15.453z" fill="#f78e36"/><path d="M377.561 420.314H134.439c-12.517 0-22.664-10.147-22.664-22.664v-78.294c0-12.517 10.147-22.664 22.664-22.664h243.123c12.517 0 22.664 10.147 22.664 22.664v78.294c-.001 12.517-10.148 22.664-22.665 22.664z" fill="#a9dbf5"/><path d="M377.561 296.692h-30.905c12.517 0 22.664 10.147 22.664 22.664v78.294c0 12.517-10.147 22.664-22.664 22.664h30.905c12.517 0 22.664-10.147 22.664-22.664v-78.294c0-12.517-10.147-22.664-22.664-22.664z" fill="#88c3e0"/><path d="M142.68 385.288v-53.569a4.121 4.121 0 014.121-4.121h218.398a4.121 4.121 0 014.121 4.121v53.569a4.121 4.121 0 01-4.121 4.121H146.801a4.122 4.122 0 01-4.121-4.121z" fill="#43809f"/><path d="M190.061 360.563c-8.534 0-15.453-6.918-15.453-15.453v-17.513h30.905v17.513c.001 8.535-6.917 15.453-15.452 15.453zm51.516 0c-8.534 0-15.453-6.918-15.453-15.453v-17.513h30.905v17.513c.001 8.535-6.917 15.453-15.452 15.453zm60.781 120.532V512h-92.716v-30.905h30.905v-30.906h30.906v30.906z" fill="#f78e36"/></svg>