<svg height="512" width="512" xmlns="http://www.w3.org/2000/svg"><circle cx="326.5" cy="256" fill="#f3f3f3" r="185.5"/><path d="M326.5 70.5c-5.207 0-10.36.225-15.458.646C406.256 79.003 481.083 158.758 481.083 256s-74.827 176.997-170.042 184.854c5.098.421 10.252.646 15.458.646C428.949 441.5 512 358.449 512 256S428.949 70.5 326.5 70.5z" fill="#e4e4e4"/><path d="M484.742 159.169L326.5 256V70.5c66.955 0 125.635 35.482 158.242 88.669z" fill="#f78e36"/><path d="M326.5 73.09c59.36 9.961 109.155 48.103 135.156 100.206l23.086-14.126C452.135 105.982 393.455 70.5 326.5 70.5z" fill="#f86f1b"/><path d="M512 256c0 7.585-.453 15.056-1.34 22.404L326.5 256l158.242-96.831C502.035 187.355 512 220.518 512 256z" fill="#29cef6"/><path d="M461.656 173.295c12.426 24.901 19.427 52.983 19.427 82.705 0 6.31-.322 12.544-.937 18.692l30.514 3.712A187.027 187.027 0 00512 256c0-35.482-9.965-68.645-27.258-96.831z" fill="#22b5ed"/><path d="M510.66 278.404a184.157 184.157 0 01-13.304 49.941L326.5 256z" fill="#ffd54f"/><path d="M470.783 317.093l26.573 11.252a184.102 184.102 0 0013.304-49.941l-30.514-3.712a184.487 184.487 0 01-9.363 42.401z" fill="#ffc328"/><path d="M287.195 301.297H1.567l17.729-53.281c2.102-6.294 8.159-10.559 14.989-10.559h220.459c6.83 0 12.888 4.265 14.989 10.559z" fill="#29cef6"/><path d="M269.444 248.016c-2.102-6.294-8.159-10.559-14.989-10.559H223.55c6.83 0 12.888 4.265 14.989 10.559L256 301.297h30.905z" fill="#22b5ed"/><path d="M265.787 410.527H22.664C10.147 410.527 0 400.38 0 387.863v-78.294c0-12.517 10.147-22.664 22.664-22.664h243.123c12.517 0 22.664 10.147 22.664 22.664v78.294c0 12.517-10.147 22.664-22.664 22.664z" fill="#a9dbf5"/><path d="M265.787 286.905h-30.905c12.517 0 22.664 10.147 22.664 22.664v78.294c0 12.517-10.147 22.664-22.664 22.664h30.905c12.517 0 22.664-10.147 22.664-22.664v-78.294c0-12.517-10.147-22.664-22.664-22.664z" fill="#88c3e0"/><path d="M30.905 375.501v-53.569a4.121 4.121 0 014.121-4.121h218.398a4.121 4.121 0 014.121 4.121v53.569a4.121 4.121 0 01-4.121 4.121H35.026a4.121 4.121 0 01-4.121-4.121z" fill="#43809f"/><path d="M78.287 350.777c-8.534 0-15.453-6.918-15.453-15.453v-17.513h30.905v17.513c0 8.534-6.918 15.453-15.452 15.453zm51.516 0c-8.534 0-15.453-6.918-15.453-15.453v-17.513h30.905v17.513c.001 8.534-6.918 15.453-15.452 15.453z" fill="#f78e36"/><path d="M295.607 170.655a20.185 20.185 0 003.038-10.641c0-11.217-9.125-20.342-20.342-20.342h-16.211a7.5 7.5 0 00-7.5 7.5v55.811a7.498 7.498 0 007.5 7.5h.033c.002 0 14.902-.066 19.009-.066 12.419 0 22.522-10.104 22.522-22.522 0-6.913-3.132-13.105-8.049-17.24zm-17.304-15.983a5.348 5.348 0 015.342 5.342 5.348 5.348 0 01-5.342 5.342c-1.199 0-3.463.007-5.926.015h-2.785v-10.699zm2.831 40.745c-2.135 0-7.178.018-11.542.035v-15.07l2.834-.01h8.708c4.147 0 7.522 3.375 7.522 7.522s-3.375 7.523-7.522 7.523zm-42.489-55.745h-30.821c-4.143 0-7.5 3.358-7.5 7.5s3.357 7.5 7.5 7.5h7.849v48.311c0 4.142 3.357 7.5 7.5 7.5s7.5-3.358 7.5-7.5v-48.311h7.973a7.5 7.5 0 10-.001-15z" fill="#43809f"/></svg>