<svg height="512" width="512" xmlns="http://www.w3.org/2000/svg"><path d="M398.457 402.77H113.275l17.702-53.281c2.098-6.294 8.146-10.559 14.966-10.559h220.114c6.819 0 12.867 4.265 14.966 10.559z" fill="#29cef6"/><path d="M381.023 349.489c-2.098-6.294-8.146-10.559-14.966-10.559H335.2c6.819 0 12.867 4.265 14.966 10.559L367.6 402.77h30.857z" fill="#22b5ed"/><path d="M377.354 512H134.646C122.139 512 112 501.861 112 489.354v-78.329c0-12.507 10.139-22.646 22.646-22.646h242.707c12.507 0 22.646 10.139 22.646 22.646v78.329C400 501.861 389.861 512 377.354 512z" fill="#a9dbf5"/><path d="M377.371 388.378h-30.857c12.497 0 22.629 10.147 22.629 22.664v78.294c0 12.517-10.131 22.664-22.629 22.664h30.857C389.869 512 400 501.853 400 489.336v-78.294c0-12.517-10.131-22.664-22.629-22.664z" fill="#88c3e0"/><path d="M142.857 476.977v-53.576a4.118 4.118 0 014.117-4.118h218.051a4.117 4.117 0 014.117 4.118v53.576a4.118 4.118 0 01-4.117 4.118h-218.05a4.118 4.118 0 01-4.118-4.118z" fill="#43809f"/><path d="M190.164 452.25c-8.521 0-15.429-6.908-15.429-15.429v-17.537h30.857v17.537c.001 8.521-6.907 15.429-15.428 15.429zm51.436 0c-8.521 0-15.429-6.908-15.429-15.429v-17.537h30.857v17.537c.001 8.521-6.907 15.429-15.428 15.429zm126.69-339.31c0 68.662-47.97 85.706-71.361 126.938S274.723 309.054 256 309.054c-18.051 0-18.07-29.997-40.929-69.177-24.561-42.097-71.361-58.275-71.361-126.937C143.71 50.565 193.984 0 256 0s112.29 50.565 112.29 112.94z" fill="#f78e36"/><path d="M256 0c-5.244 0-10.4.37-15.453 1.069 54.702 7.574 96.837 54.769 96.837 111.87 0 68.662-47.97 85.706-71.361 126.938-14.104 24.86-19.274 44.877-25.259 56.864 3.957 7.795 8.242 12.313 15.236 12.313 18.723 0 17.537-27.945 40.928-69.177 23.392-41.232 71.361-58.276 71.361-126.938C368.29 50.565 318.016 0 256 0z" fill="#f86f1b"/><path d="M312.185 92.433a7.5 7.5 0 00-10.606.021l-55.879 56.1-35.481-33.011a7.501 7.501 0 00-10.218 10.982l40.788 37.948a7.475 7.475 0 005.108 2.009 7.484 7.484 0 005.315-2.207l60.994-61.236a7.5 7.5 0 00-.021-10.606z" fill="#f3f3f3"/></svg>